<?xml version="1.0" standalone="no"?>
  <!DOCTYPE svg PUBLIC "-//W3C//DTD SVG 1.1//EN" "http://www.w3.org/Graphics/SVG/1.1/DTD/svg11.dtd" >
  <svg>
  <metadata>
  Created by font-carrier
  </metadata>
  <defs>
  <font id="AvenirNextCyr-Thin" horiz-adv-x="1088" vert-adv-y="1088" >
    <font-face
      
      font-family="Avenir Next Cyr Thin"
      
      font-weight="400"
      
      font-stretch="normal"
      
      units-per-em="1000"
      
      ascent="971"
      
      descent="-254"
      
    />
      <missing-glyph />

      

      
      <glyph glyph-name="uni21" unicode="&#x21;" d="M165 708L165 194L127 194L127 708L165 708M179 28Q179 14 169 4Q159-6 146-6Q133-6 123 4Q113 14 113 28Q113 43 122.50 53Q132 63 146 63Q160 63 169.50 53Q179 43 179 28Z"  horiz-adv-x="292" vert-adv-y="1000"  />

      
      <glyph glyph-name="uni22" unicode="&#x22;" d="M113 478L113 708L147 708L147 478L113 478M257 478L257 708L291 708L291 478L257 478Z"  horiz-adv-x="404" vert-adv-y="1000"  />

      
      <glyph glyph-name="uni23" unicode="&#x23;" d="M109 0L139 232L31 232L31 262L143 262L168 448L58 448L58 478L173 478L202 708L234 708L204 478L364 478L394 708L426 708L396 478L501 478L501 448L392 448L367 262L474 262L474 232L363 232L333 0L301 0L331 232L171 232L141 0L109 0M200 448L176 262L335 262L360 448L200 448Z"  horiz-adv-x="552" vert-adv-y="1000"  />

      
      <glyph glyph-name="uni24" unicode="&#x24;" d="M257 382L257 689Q193 683 149 643Q105 603 105 538Q105 474 145.50 439Q186 404 257 382M288 336L288 18Q358 21 406 62Q454 103 454 176Q454 239 409.50 275.50Q365 312 288 336M257 18L257 344Q165 373 117 415Q69 457 69 537Q69 616 122 664.50Q175 713 257 720L257 792L288 792L288 721Q411 719 477 642L448 618Q393 690 288 690L288 372Q327 359 352 348.50Q377 338 406 321Q435 304 451.50 285Q468 266 479.50 237.50Q491 209 491 174Q491 91 434 40.50Q377-10 288-13L288-84L257-84L257-13Q130-9 54 82L83 104Q115 65 163 42.50Q211 20 257 18Z"  horiz-adv-x="566" vert-adv-y="1000"  />

      
      <glyph glyph-name="uni25" unicode="&#x25;" d="M373 553Q373 484 326 436.50Q279 389 211 389Q143 389 95.50 436.50Q48 484 48 553Q48 621 95.50 669Q143 717 211 717Q278 717 325.50 669Q373 621 373 553M340 553Q340 608 302 646.50Q264 685 211 685Q158 685 120 646.50Q82 608 82 553Q82 497 119.50 459Q157 421 211 421Q264 421 302 459Q340 497 340 553M728.50 270.50Q728.50 270.50 752.25 246.75Q776 223 776 154Q776 85 728.50 38Q681-9 613-9Q545-9 498 38Q451 85 451 154Q451 223 498 270.50Q545 318 613 318Q681 318 728.50 270.50M742 154Q742 209 704 247.50Q666 286 613 286Q560 286 522 247.50Q484 209 484 154Q484 98 521.50 60Q559 22 613 22Q666 22 704 60Q742 98 742 154M645 721L202-28L175-12L618 737L645 721Z"  horiz-adv-x="824" vert-adv-y="1000"  />

      
      <glyph glyph-name="uni26" unicode="&#x26;" d="M643 373L517 150L659 0L608 0L497 118Q408-16 273-16Q185-16 126 37.50Q67 91 67 181Q67 254 110.50 302.50Q154 351 237 393Q188 446 167 486Q146 526 146 569Q146 640 191.50 683Q237 726 307 726Q373 726 417.50 684.50Q462 643 462 580Q462 516 419.50 474Q377 432 292 386L491 174L601 373L643 373M425 577Q425 629 391 662Q357 695 306 695Q253 695 217.50 660Q182 625 182 570Q182 529 205 491Q228 453 270 408Q346 447 385.50 484.50Q425 522 425 577M472 144L259 369Q105 294 105 180Q105 107 155 61.50Q205 16 277 16Q397 16 472 144Z"  horiz-adv-x="704" vert-adv-y="1000"  />

      
      <glyph glyph-name="uni27" unicode="&#x27;" d="M113 478L113 708L147 708L147 478L113 478Z"  horiz-adv-x="260" vert-adv-y="1000"  />

      
      <glyph glyph-name="uni28" unicode="&#x28;" d="M132 517.50Q132 517.50 114.50 458.75Q97 400 97 288Q97 176 132 58.50Q167-59 225-140L195-157Q133-68 97 49.50Q61 167 61 288Q61 409 97 526.50Q133 644 195 733L225 716Q167 635 132 517.50Z"  horiz-adv-x="300" vert-adv-y="1000"  />

      
      <glyph glyph-name="uni29" unicode="&#x29;" d="M167 58.50Q167 58.50 184.50 117.25Q202 176 202 288Q202 400 167 517.50Q132 635 73 716L103 733Q165 644 201.50 526.50Q238 409 238 288Q238 167 201.50 49.50Q165-68 103-157L73-140Q132-59 167 58.50Z"  horiz-adv-x="300" vert-adv-y="1000"  />

      
      <glyph glyph-name="uni2a" unicode="&#x2a;" d="M237 708L237 546L393 595L404 566L246 518L345 382L320 364L222 502L124 364L99 382L198 518L40 566L51 595L207 546L207 708L237 708Z"  horiz-adv-x="444" vert-adv-y="1000"  />

      
      <glyph glyph-name="uni2b" unicode="&#x2b;" d="M351 548L351 320L573 320L573 288L351 288L351 60L318 60L318 288L93 288L93 320L318 320L318 548L351 548Z"  horiz-adv-x="666" vert-adv-y="1000"  />

      
      <glyph glyph-name="uni2c" unicode="&#x2c;" d="M162 92L92-139L63-139L123 92L162 92Z"  horiz-adv-x="246" vert-adv-y="1000"  />

      
      <glyph glyph-name="uni2d" unicode="&#x2d;" d="M250 266L250 235L56 235L56 266L250 266Z"  horiz-adv-x="306" vert-adv-y="1000"  />

      
      <glyph glyph-name="uni2e" unicode="&#x2e;" d="M156 29Q156 14 146.50 4Q137-6 123-6Q109-6 100 4Q91 14 91 29Q91 43 100.50 53Q110 63 123 63Q136 63 146 53Q156 43 156 29Z"  horiz-adv-x="246" vert-adv-y="1000"  />

      
      <glyph glyph-name="uni2f" unicode="&#x2f;" d="M354 717L48-16L17-5L323 728L354 717Z"  horiz-adv-x="370" vert-adv-y="1000"  />

      
      <glyph glyph-name="uni30" unicode="&#x30;" d="M190.50 699.50Q190.50 699.50 210.75 710.75Q231 722 283 722Q335 722 375 699.50Q415 677 439.50 641.50Q464 606 479.50 556Q495 506 501 457.50Q507 409 507 354Q507 284 497 223.50Q487 163 463 107Q439 51 393 18.50Q347-14 283-14Q218-14 172 18.50Q126 51 102.50 107.50Q79 164 69 224Q59 284 59 354Q59 409 64.50 457.50Q70 506 85.50 556Q101 606 125.50 641.50Q150 677 190.50 699.50M283 689Q236 689 201 665Q166 641 146.50 605.50Q127 570 115.50 521.50Q104 473 100.50 434Q97 395 97 354Q97 313 100.50 274Q104 235 115.50 186.50Q127 138 146.50 102.50Q166 67 201 43Q236 19 283 19Q340 19 380 53.50Q420 88 437.50 144.50Q455 201 462 250.50Q469 300 469 354Q469 408 462 457.50Q455 507 437.50 563.50Q420 620 380 654.50Q340 689 283 689Z"  horiz-adv-x="566" vert-adv-y="1000"  />

      
      <glyph glyph-name="uni31" unicode="&#x31;" d="M326 708L326 0L289 0L289 663L157 550L134 577L291 708L326 708Z"  horiz-adv-x="566" vert-adv-y="1000"  />

      
      <glyph glyph-name="uni32" unicode="&#x32;" d="M474 34L474 0L59 0L59 41L320 332Q374 392 402 440.50Q430 489 430 538Q430 607 386.50 648.50Q343 690 276 690Q219 690 176.50 657Q134 624 118 567L81 576Q99 643 152 682.50Q205 722 276 722Q359 722 413.50 672Q468 622 468 543Q468 481 438 430Q408 379 338 301L99 34L474 34Z"  horiz-adv-x="566" vert-adv-y="1000"  />

      
      <glyph glyph-name="uni33" unicode="&#x33;" d="M217 355L217 388L242 388Q314 388 365 427Q416 466 416 542Q416 608 372.50 649Q329 690 264 690Q220 690 181.50 670Q143 650 121 614L93 633Q152 722 266 722Q346 722 399 673.50Q452 625 452 544Q452 481 416 434Q380 387 315 374L315 372Q392 359 434 308.50Q476 258 476 189Q476 101 420 43.50Q364-14 265-14Q195-14 142 18Q89 50 62 107L94 123Q115 76 161 48.50Q207 21 265 19Q344 19 391.50 66.50Q439 114 439 190Q439 271 378.50 313Q318 355 242 355L217 355Z"  horiz-adv-x="566" vert-adv-y="1000"  />

      
      <glyph glyph-name="uni34" unicode="&#x34;" d="M408 708L408 213L522 213L522 180L408 180L408 0L372 0L372 180L43 180L43 220L356 708L408 708M372 213L372 666L369 666L80 213L372 213Z"  horiz-adv-x="566" vert-adv-y="1000"  />

      
      <glyph glyph-name="uni35" unicode="&#x35;" d="M455 708L455 674L156 674L150 417Q198 439 263 439Q362 439 423 376.50Q484 314 484 216Q484 111 419.50 48.50Q355-14 263-14Q135-14 67 91L98 110Q152 19 262 19Q337 19 392 72Q447 125 447 214Q447 300 394 353.50Q341 407 251 407Q180 407 115 371L120 708L455 708Z"  horiz-adv-x="566" vert-adv-y="1000"  />

      
      <glyph glyph-name="uni36" unicode="&#x36;" d="M361 708L152 364L154 362Q177 388 215 403.50Q253 419 293 419Q381 419 440 357.50Q499 296 499 202Q499 108 438 47Q377-14 282-14Q187-14 127 46.50Q67 107 67 202Q67 285 128 389L317 708L361 708M104 202Q104 122 154.50 70Q205 18 283 18Q361 18 411.50 70Q462 122 462 202Q462 282 413 335Q364 388 287 388Q210 388 157 334.50Q104 281 104 202Z"  horiz-adv-x="566" vert-adv-y="1000"  />

      
      <glyph glyph-name="uni37" unicode="&#x37;" d="M471 708L471 669L179 0L138 0L435 674L77 674L77 708L471 708Z"  horiz-adv-x="566" vert-adv-y="1000"  />

      
      <glyph glyph-name="uni38" unicode="&#x38;" d="M353 378Q424 357 461 305.50Q498 254 498 187Q498 97 436.50 41.50Q375-14 283-14Q191-14 130 41.50Q69 97 69 187Q69 254 106.50 306Q144 358 213 378L213 380Q157 400 126.50 445Q96 490 96 544Q96 623 149.50 672.50Q203 722 283 722Q363 722 417 672.50Q471 623 471 544Q471 491 440 445.50Q409 400 353 380L353 378M132 543Q132 481 175.50 437.50Q219 394 283 394Q348 394 391.50 438Q435 482 435 543Q435 607 391.50 648.50Q348 690 283 690Q218 690 175 649Q132 608 132 543M106 190Q106 116 155 67Q204 18 283 18Q362 18 411 67Q460 116 460 190Q460 265 409.50 313.50Q359 362 283 362Q207 362 156.50 313.50Q106 265 106 190Z"  horiz-adv-x="566" vert-adv-y="1000"  />

      
      <glyph glyph-name="uni39" unicode="&#x39;" d="M205 0L415 348L413 350Q390 324 352 308.50Q314 293 274 293Q186 293 127 353.50Q68 414 68 507Q68 601 128.50 661.50Q189 722 284 722Q379 722 439.50 662Q500 602 500 507Q500 426 439 323L249 0L205 0M462 507Q462 587 412 638.50Q362 690 284 690Q205 690 155 638.50Q105 587 105 507Q105 428 154 376Q203 324 280 324Q357 324 409.50 376.50Q462 429 462 507Z"  horiz-adv-x="566" vert-adv-y="1000"  />

      
      <glyph glyph-name="uni3a" unicode="&#x3a;" d="M166.50 454Q166.50 454 171.25 449Q176 444 176 430Q176 416 166.50 406Q157 396 143 396Q130 396 120.50 406Q111 416 111 430Q111 444 120.50 454Q130 464 143 464Q157 464 166.50 454M176 29Q176 14 166.50 4Q157-6 143-6Q129-6 120 4Q111 14 111 29Q111 43 120.50 53Q130 63 143 63Q156 63 166 53Q176 43 176 29Z"  horiz-adv-x="286" vert-adv-y="1000"  />

      
      <glyph glyph-name="uni3b" unicode="&#x3b;" d="M166.50 454Q166.50 454 171.25 449Q176 444 176 430Q176 416 166.50 406Q157 396 143 396Q130 396 120.50 406Q111 416 111 430Q111 444 120.50 454Q130 464 143 464Q157 464 166.50 454M173 92L104-139L74-139L134 92L173 92Z"  horiz-adv-x="286" vert-adv-y="1000"  />

      
      <glyph glyph-name="uni3c" unicode="&#x3c;" d="M573 547L573 514L127 303L573 92L573 59L93 288L93 318L573 547Z"  horiz-adv-x="666" vert-adv-y="1000"  />

      
      <glyph glyph-name="uni3d" unicode="&#x3d;" d="M93 402L573 402L573 370L93 370L93 402M93 237L573 237L573 206L93 206L93 237Z"  horiz-adv-x="666" vert-adv-y="1000"  />

      
      <glyph glyph-name="uni3e" unicode="&#x3e;" d="M93 514L93 547L573 318L573 288L93 59L93 92L539 303L93 514Z"  horiz-adv-x="666" vert-adv-y="1000"  />

      
      <glyph glyph-name="uni3f" unicode="&#x3f;" d="M257 242L257 198L221 198L221 253Q221 296 239.50 331.50Q258 367 310 410Q354 447 372.50 477Q391 507 391 551Q391 616 348.50 653Q306 690 242 690Q180 690 138.50 653Q97 616 87 555L51 561Q65 638 117 681Q169 724 244 724Q324 724 376.50 678.50Q429 633 429 553Q429 513 414.50 481Q400 449 384.50 432Q369 415 338 390Q288 348 272.50 320Q257 292 257 242M275 28Q275 14 265.50 4Q256-6 243-6Q229-6 219.50 4Q210 14 210 28Q210 43 219.50 53Q229 63 243 63Q256 63 265.50 53Q275 43 275 28Z"  horiz-adv-x="475" vert-adv-y="1000"  />

      
      <glyph glyph-name="uni40" unicode="&#x40;" d="M426 519Q355 519 310.50 448Q266 377 266 297Q266 253 288.50 222.50Q311 192 357 192Q406 192 444 235Q482 278 498 328Q514 378 514 418Q514 462 492 490.50Q470 519 426 519M700 137L722 114Q603-19 420-19Q253-19 148 87.50Q43 194 43 354Q43 511 151.50 619Q260 727 416 727Q565 727 664 639.50Q763 552 763 412Q763 299 710 229.50Q657 160 569 160Q531 160 508 179Q485 198 485 232Q485 240 486 244L483 244Q466 211 431.50 185.50Q397 160 351 160Q292 160 260 200Q228 240 228 299Q228 359 251.50 416Q275 473 322 512.50Q369 552 427 552Q470 552 497 530Q524 508 531 470L535 470L552 535L585 535L526 313Q516 277 516 247Q516 192 574 192Q648 192 688 255Q728 318 728 410Q728 536 639.50 615Q551 694 416 694Q272 694 177 593.50Q82 493 82 353Q82 207 177 110Q272 13 422 13Q588 13 700 137Z"  horiz-adv-x="800" vert-adv-y="1000"  />

      
      <glyph glyph-name="uni41" unicode="&#x41;" d="M140 198L57 0L16 0L322 708L363 708L661 0L620 0L538 198L140 198M341 674L154 231L524 231L341 674Z"  horiz-adv-x="677" vert-adv-y="1000"  />

      
      <glyph glyph-name="uni42" unicode="&#x42;" d="M102 0L102 708L301 708Q344 708 381.50 699.50Q419 691 452 672.50Q485 654 504 619.50Q523 585 523 537Q523 471 484 430Q445 389 385 376L385 374Q452 367 504 320Q556 273 556 191Q556 93 487 46.50Q418 0 317 0L102 0M140 675L140 388L302 388Q376 388 430.50 424.50Q485 461 485 533Q485 608 431 641.50Q377 675 292 675L140 675M140 356L140 33L309 33Q403 33 460.50 72Q518 111 518 190Q518 272 460 314Q402 356 321 356L140 356Z"  horiz-adv-x="619" vert-adv-y="1000"  />

      
      <glyph glyph-name="uni43" unicode="&#x43;" d="M659 117L687 95Q646 42 577.50 11.50Q509-19 431-19Q272-19 169.50 86.50Q67 192 67 354Q67 516 170 621.50Q273 727 431 727Q502 727 566 701.50Q630 676 670 630L643 605Q608 646 550 669.50Q492 693 431 693Q287 693 196.50 595Q106 497 106 354Q106 211 196 113Q286 15 431 15Q498 15 559.50 41Q621 67 659 117Z"  horiz-adv-x="723" vert-adv-y="1000"  />

      
      <glyph glyph-name="uni44" unicode="&#x44;" d="M102 0L102 708L314 708Q480 708 589.50 617.50Q699 527 699 354Q699 266 668 197Q637 128 583.50 85.50Q530 43 461.50 21.50Q393 0 314 0L102 0M140 674L140 34L304 34Q465 34 562.50 118Q660 202 660 354Q660 506 562.50 590Q465 674 304 674L140 674Z"  horiz-adv-x="766" vert-adv-y="1000"  />

      
      <glyph glyph-name="uni45" unicode="&#x45;" d="M139 351L139 34L537 34L537 0L102 0L102 708L523 708L523 674L139 674L139 384L499 384L499 351L139 351Z"  horiz-adv-x="591" vert-adv-y="1000"  />

      
      <glyph glyph-name="uni46" unicode="&#x46;" d="M140 350L140 0L102 0L102 708L513 708L513 674L140 674L140 383L487 383L487 350L140 350Z"  horiz-adv-x="561" vert-adv-y="1000"  />

      
      <glyph glyph-name="uni47" unicode="&#x47;" d="M678 641L653 615Q615 652 556 673Q497 694 436 694Q289 694 197.50 596Q106 498 106 355Q106 211 197 112.50Q288 14 441 14Q563 14 659 63L659 324L481 324L481 356L696 356L696 44Q588-19 439-19Q274-19 170.50 87Q67 193 67 355Q67 517 170.50 622Q274 727 436 727Q581 727 678 641Z"  horiz-adv-x="790" vert-adv-y="1000"  />

      
      <glyph glyph-name="uni48" unicode="&#x48;" d="M102 0L102 708L140 708L140 384L588 384L588 708L625 708L625 0L588 0L588 350L140 350L140 0L102 0Z"  horiz-adv-x="728" vert-adv-y="1000"  />

      
      <glyph glyph-name="uni49" unicode="&#x49;" d="M140 708L140 0L102 0L102 708L140 708Z"  horiz-adv-x="242" vert-adv-y="1000"  />

      
      <glyph glyph-name="uni4a" unicode="&#x4a;" d="M28 103L62 115Q78 70 115 42.50Q152 15 200 15Q277 15 313 65.50Q349 116 349 200L349 708L386 708L386 196Q386 101 340.50 41.50Q295-18 203-18Q138-18 91 16Q44 50 28 103Z"  horiz-adv-x="484" vert-adv-y="1000"  />

      
      <glyph glyph-name="uni4b" unicode="&#x4b;" d="M140 708L140 385L491 708L545 708L186 384L563 0L509 0L140 380L140 0L102 0L102 708L140 708Z"  horiz-adv-x="584" vert-adv-y="1000"  />

      
      <glyph glyph-name="uni4c" unicode="&#x4c;" d="M140 708L140 34L485 34L485 0L102 0L102 708L140 708Z"  horiz-adv-x="502" vert-adv-y="1000"  />

      
      <glyph glyph-name="uni4d" unicode="&#x4d;" d="M102 0L102 708L163 708L450 60L737 708L798 708L798 0L760 0L760 662L757 662L461 0L437 0L142 662L140 662L140 0L102 0Z"  horiz-adv-x="900" vert-adv-y="1000"  />

      
      <glyph glyph-name="uni4e" unicode="&#x4e;" d="M152 708L631 52L633 52L633 708L671 708L671 0L621 0L142 658L140 658L140 0L102 0L102 708L152 708Z"  horiz-adv-x="773" vert-adv-y="1000"  />

      
      <glyph glyph-name="uni4f" unicode="&#x4f;" d="M694.50 621.50Q694.50 621.50 746.25 568.75Q798 516 798 354Q798 192 694 86.50Q590-19 433-19Q275-19 171 86.50Q67 192 67 354Q67 516 170.50 621.50Q274 727 433 727Q591 727 694.50 621.50M668.50 113Q668.50 113 713.75 162Q759 211 759 354Q759 497 668 595.50Q577 694 433 694Q289 694 197.50 595.50Q106 497 106 354Q106 211 197 113Q288 15 433 15Q578 15 668.50 113Z"  horiz-adv-x="865" vert-adv-y="1000"  />

      
      <glyph glyph-name="uni50" unicode="&#x50;" d="M102 0L102 708L297 708Q393 708 457.50 664.50Q522 621 522 528Q522 440 461 391Q400 342 305 342L140 342L140 0L102 0M140 676L140 374L305 374Q383 374 433.50 412.50Q484 451 484 528Q484 604 432 640Q380 676 301 676L140 676Z"  horiz-adv-x="574" vert-adv-y="1000"  />

      
      <glyph glyph-name="uni51" unicode="&#x51;" d="M106 362Q106 224 197 128.50Q288 33 430 33Q573 33 663 131Q753 229 753 362Q753 500 662 597Q571 694 429 694Q287 694 196.50 597.50Q106 501 106 362M832 34L832 0L428 0Q275 0 171 101.50Q67 203 67 362Q67 521 170 624Q273 727 429 727Q585 727 688 623Q791 519 791 362Q791 251 728.50 158Q666 65 572 36L572 34L832 34Z"  horiz-adv-x="871" vert-adv-y="1000"  />

      
      <glyph glyph-name="uni52" unicode="&#x52;" d="M140 349L140 0L102 0L102 708L302 708Q402 708 466 667Q530 626 530 529Q530 443 472 399Q414 355 332 352L544 0L500 0L292 349L140 349M140 676L140 382L298 382Q392 382 442.50 420Q493 458 493 529Q493 676 291 676L140 676Z"  horiz-adv-x="596" vert-adv-y="1000"  />

      
      <glyph glyph-name="uni53" unicode="&#x53;" d="M486 646L458 622Q404 694 299 694Q226 694 171.50 653.50Q117 613 117 540Q117 496 138 464Q159 432 193 413.50Q227 395 267.50 380.50Q308 366 349 351Q390 336 424 315.50Q458 295 479 259.50Q500 224 500 175Q500 84 436 32.50Q372-19 280-19Q144-19 68 72L93 97Q172 15 280 15Q355 15 408.50 57.50Q462 100 462 173Q462 224 433.50 258.50Q405 293 363 309.50Q321 326 271 345Q221 364 179 383Q137 402 108.50 442Q80 482 80 539Q80 627 144.50 677Q209 727 300 727Q359 727 407.50 705.50Q456 684 486 646Z"  horiz-adv-x="568" vert-adv-y="1000"  />

      
      <glyph glyph-name="uni54" unicode="&#x54;" d="M293 674L293 0L256 0L256 674L16 674L16 708L533 708L533 674L293 674Z"  horiz-adv-x="549" vert-adv-y="1000"  />

      
      <glyph glyph-name="uni55" unicode="&#x55;" d="M363-19Q289-19 235 4.50Q181 28 151.50 69.50Q122 111 108 160Q94 209 94 267L94 708L132 708L132 272Q132 235 137.50 202Q143 169 158 133.50Q173 98 198 72.50Q223 47 265 30.50Q307 14 363 14Q430 14 478 37.50Q526 61 550 101Q574 141 584 182.50Q594 224 594 272L594 708L631 708L631 267Q631 209 617 160Q603 111 573.50 69.50Q544 28 490 4.50Q436-19 363-19Z"  horiz-adv-x="725" vert-adv-y="1000"  />

      
      <glyph glyph-name="uni56" unicode="&#x56;" d="M54 708L303 43L305 43L558 708L598 708L328 0L281 0L13 708L54 708Z"  horiz-adv-x="611" vert-adv-y="1000"  />

      
      <glyph glyph-name="uni57" unicode="&#x57;" d="M63 708L258 44L261 44L454 708L504 708L701 44L703 44L898 708L937 708L726 0L677 0L480 663L478 663L284 0L235 0L24 708L63 708Z"  horiz-adv-x="961" vert-adv-y="1000"  />

      
      <glyph glyph-name="uni58" unicode="&#x58;" d="M97 708L305 399L511 708L555 708L327 371L580 0L534 0L304 343L74 0L28 0L281 371L52 708L97 708Z"  horiz-adv-x="608" vert-adv-y="1000"  />

      
      <glyph glyph-name="uni59" unicode="&#x59;" d="M298 308L298 0L260 0L260 308L10 708L56 708L280 342L504 708L547 708L298 308Z"  horiz-adv-x="558" vert-adv-y="1000"  />

      
      <glyph glyph-name="uni5a" unicode="&#x5a;" d="M538 708L538 669L88 34L549 34L549 0L47 0L47 37L499 674L59 674L59 708L538 708Z"  horiz-adv-x="587" vert-adv-y="1000"  />

      
      <glyph glyph-name="uni5b" unicode="&#x5b;" d="M220 732L220 702L109 702L109-126L220-126L220-156L73-156L73 732L220 732Z"  horiz-adv-x="300" vert-adv-y="1000"  />

      
      <glyph glyph-name="uni5c" unicode="&#x5c;" d="M323-16L17 717L48 728L354-5L323-16Z"  horiz-adv-x="370" vert-adv-y="1000"  />

      
      <glyph glyph-name="uni5d" unicode="&#x5d;" d="M80-156L80-126L191-126L191 702L80 702L80 732L227 732L227-156L80-156Z"  horiz-adv-x="300" vert-adv-y="1000"  />

      
      <glyph glyph-name="uni5e" unicode="&#x5e;" d="M92 252L317 708L349 708L574 252L541 252L333 677L125 252L92 252Z"  horiz-adv-x="666" vert-adv-y="1000"  />

      
      <glyph glyph-name="uni5f" unicode="&#x5f;" d="M0-117L0-88L500-88L500-117L0-117Z"  horiz-adv-x="500" vert-adv-y="1000"  />

      
      <glyph glyph-name="uni60" unicode="&#x60;" d="M128 564L11 708L58 708L160 564L128 564Z"  horiz-adv-x="240" vert-adv-y="1000"  />

      
      <glyph glyph-name="uni61" unicode="&#x61;" d="M219-13Q157-13 110 21.50Q63 56 63 122Q63 275 327 275L393 275L393 305Q393 375 356 410Q319 445 252 445Q172 445 112 390L92 416Q158 476 254 476Q335 476 381.50 433.50Q428 391 428 307L428 104Q428 40 436 0L402 0Q395 44 395 99L392 99Q370 43 323.50 15Q277-13 219-13M225 17Q310 17 351.50 75.50Q393 134 393 219L393 246L337 246Q99 246 99 123Q99 69 137 43Q175 17 225 17Z"  horiz-adv-x="519" vert-adv-y="1000"  />

      
      <glyph glyph-name="uni62" unicode="&#x62;" d="M138 110L135 110L135 0L99 0L99 756L135 756L135 351L138 351Q167 411 220.50 443.50Q274 476 336 476Q439 476 504 406.50Q569 337 569 231Q569 126 503.50 56.50Q438-13 336-13Q273-13 218.50 19.50Q164 52 138 110M532 231Q532 320 477.50 382.50Q423 445 333 445Q248 445 191 382.50Q134 320 134 231Q134 142 191 80Q248 18 333 18Q423 18 477.50 79.50Q532 141 532 231Z"  horiz-adv-x="629" vert-adv-y="1000"  />

      
      <glyph glyph-name="uni63" unicode="&#x63;" d="M454 410L429 387Q379 445 299 445Q209 445 153.50 383Q98 321 98 231Q98 141 153.50 80Q209 19 299 19Q379 19 436 73L458 51Q397-13 299-13Q194-13 127 55.50Q60 124 60 231Q60 337 127 406.50Q194 476 299 476Q396 476 454 410Z"  horiz-adv-x="486" vert-adv-y="1000"  />

      
      <glyph glyph-name="uni64" unicode="&#x64;" d="M492 110Q463 51 409.50 19Q356-13 294-13Q191-13 125.50 56.50Q60 126 60 231Q60 336 126 406Q192 476 294 476Q356 476 409.50 443.50Q463 411 492 351L494 351L494 756L530 756L530 0L494 0L494 110L492 110M152.50 383Q152.50 383 125.25 352Q98 321 98 231Q98 141 152 79.50Q206 18 296 18Q381 18 438 80Q495 142 495 231Q495 320 438 382.50Q381 445 296 445Q207 445 152.50 383Z"  horiz-adv-x="629" vert-adv-y="1000"  />

      
      <glyph glyph-name="uni65" unicode="&#x65;" d="M98 259L465 259Q463 342 413.50 393.50Q364 445 284 445Q226 445 182 412.50Q138 380 118.50 339Q99 298 98 259M293-13Q191-13 125.50 57Q60 127 60 235Q60 339 124.50 407.50Q189 476 284 476Q387 476 444 410Q501 344 501 251Q501 248 500.50 240Q500 232 500 229L97 229Q98 144 150.50 81Q203 18 293 18Q391 18 458 100L483 79Q411-13 293-13Z"  horiz-adv-x="561" vert-adv-y="1000"  />

      
      <glyph glyph-name="uni66" unicode="&#x66;" d="M274 462L274 432L154 432L154 0L118 0L118 432L20 432L20 462L117 462L117 616Q117 694 154 731Q191 768 249 768Q277 768 298 762L292 731Q271 737 249 737Q198 737 176 702.50Q154 668 154 614L154 462L274 462Z"  horiz-adv-x="286" vert-adv-y="1000"  />

      
      <glyph glyph-name="uni67" unicode="&#x67;" d="M85-158L109-134Q187-215 296-215Q402-215 448-149.50Q494-84 494 21L494 114L492 114Q466 56 411.50 23Q357-10 294-10Q191-10 125.50 58.50Q60 127 60 232Q60 336 126 406Q192 476 294 476Q356 476 409.50 443Q463 410 492 351L494 351L494 462L530 462L530 19Q530-34 518.50-79Q507-124 481.50-163Q456-202 408-224.50Q360-247 295-247Q166-247 85-158M98 232Q98 144 152.50 82.50Q207 21 296 21Q382 21 438.50 82.50Q495 144 495 233Q495 321 438 383Q381 445 296 445Q207 445 152.50 383Q98 321 98 232Z"  horiz-adv-x="628" vert-adv-y="1000"  />

      
      <glyph glyph-name="uni68" unicode="&#x68;" d="M135 355L137 355Q157 411 205 443.50Q253 476 311 476Q399 476 439.50 421Q480 366 480 281L480 0L444 0L444 271Q444 305 437.50 333.50Q431 362 416.50 388.50Q402 415 373.50 430Q345 445 305 445Q232 445 183.50 386Q135 327 135 219L135 0L99 0L99 756L135 756L135 355Z"  horiz-adv-x="573" vert-adv-y="1000"  />

      
      <glyph glyph-name="uni69" unicode="&#x69;" d="M135 462L135 0L99 0L99 462L135 462M147 656Q147 642 138 632.50Q129 623 117 623Q104 623 95 632.50Q86 642 86 656Q86 669 95.50 678.50Q105 688 117 688Q129 688 138 678.50Q147 669 147 656Z"  horiz-adv-x="233" vert-adv-y="1000"  />

      
      <glyph glyph-name="uni6a" unicode="&#x6a;" d="M-20-236L-14-206Q6-210 16-210Q38-210 54-203Q70-196 78.50-186.50Q87-177 92-160Q97-143 98-129Q99-115 99-94L99 462L135 462L135-96Q135-168 109.50-204.50Q84-241 17-241Q-2-241-20-236M148 656Q148 642 138.50 632.50Q129 623 117 623Q104 623 95 632.50Q86 642 86 656Q86 669 95.50 678.50Q105 688 117 688Q129 688 138.50 678.50Q148 669 148 656Z"  horiz-adv-x="234" vert-adv-y="1000"  />

      
      <glyph glyph-name="uni6b" unicode="&#x6b;" d="M135 756L135 251L137 251L368 462L420 462L179 249L446 0L393 0L137 244L135 244L135 0L99 0L99 756L135 756Z"  horiz-adv-x="465" vert-adv-y="1000"  />

      
      <glyph glyph-name="uni6c" unicode="&#x6c;" d="M135 756L135 0L99 0L99 756L135 756Z"  horiz-adv-x="234" vert-adv-y="1000"  />

      
      <glyph glyph-name="uni6d" unicode="&#x6d;" d="M100 0L100 350Q100 426 96 462L131 462Q135 412 135 354L137 354Q157 410 202 443Q247 476 301 476Q419 476 455 348Q476 409 521.50 442.50Q567 476 627 476Q714 476 754 420Q794 364 794 275L794 0L758 0L758 266Q758 342 726.50 393.50Q695 445 624 445Q552 445 507.50 387Q463 329 463 236L463 0L426 0L426 275Q426 357 393.50 401Q361 445 298 445Q230 445 183.50 386.50Q137 328 137 225L137 0L100 0Z"  horiz-adv-x="887" vert-adv-y="1000"  />

      
      <glyph glyph-name="uni6e" unicode="&#x6e;" d="M96 462L131 462Q135 412 135 354L137 354Q157 410 205 443Q253 476 310 476Q398 476 440 420.50Q482 365 482 281L482 0L446 0L446 271Q446 345 414 395Q382 445 307 445Q235 445 186 388Q137 331 137 233L137 0L100 0L100 350Q100 426 96 462Z"  horiz-adv-x="575" vert-adv-y="1000"  />

      
      <glyph glyph-name="uni6f" unicode="&#x6f;" d="M478.50 407.50Q478.50 407.50 512.75 373.25Q547 339 547 232Q547 125 478.50 56Q410-13 303-13Q197-13 128.50 56Q60 125 60 232Q60 339 128.50 407.50Q197 476 303 476Q410 476 478.50 407.50M452.50 79.50Q452.50 79.50 480.75 110.25Q509 141 509 232Q509 323 452.50 384Q396 445 303 445Q210 445 154 384Q98 323 98 232Q98 141 154 79.50Q210 18 303 18Q396 18 452.50 79.50Z"  horiz-adv-x="607" vert-adv-y="1000"  />

      
      <glyph glyph-name="uni70" unicode="&#x70;" d="M135 110L135-240L98-240L98 462L135 462L135 351L138 351Q167 411 220 443.50Q273 476 335 476Q439 476 504 406.50Q569 337 569 231Q569 126 503.50 56.50Q438-13 335-13Q272-13 218 19.50Q164 52 138 110L135 110M531 231Q531 320 476.50 382.50Q422 445 333 445Q248 445 190.50 382.50Q133 320 133 231Q133 142 190.50 80Q248 18 333 18Q422 18 476.50 79.50Q531 141 531 231Z"  horiz-adv-x="629" vert-adv-y="1000"  />

      
      <glyph glyph-name="uni71" unicode="&#x71;" d="M494 110L491 110Q465 52 411 19.50Q357-13 294-13Q191-13 125.50 56.50Q60 126 60 231Q60 337 125 406.50Q190 476 294 476Q356 476 409 443.50Q462 411 491 351L494 351L494 462L530 462L530-240L494-240L494 110M152.50 383Q152.50 383 125.25 352Q98 321 98 231Q98 141 152 79.50Q206 18 296 18Q381 18 438 80Q495 142 495 231Q495 320 438 382.50Q381 445 296 445Q207 445 152.50 383Z"  horiz-adv-x="629" vert-adv-y="1000"  />

      
      <glyph glyph-name="uni72" unicode="&#x72;" d="M100 350Q100 426 96 462L131 462Q135 412 135 354L137 354Q156 413 198.50 444.50Q241 476 293 476Q311 476 320 474L317 441Q305 443 293 443Q219 443 178 382Q137 321 137 228L137 0L100 0L100 350Z"  horiz-adv-x="330" vert-adv-y="1000"  />

      
      <glyph glyph-name="uni73" unicode="&#x73;" d="M361 404L334 384Q293 445 214 445Q170 445 136 422Q102 399 102 352Q102 312 130 291Q158 270 226 254Q297 237 335 208Q373 179 373 124Q373 60 327 24Q281-12 215-12Q103-12 46 69L75 90Q125 19 215 19Q264 19 300.50 45.50Q337 72 337 121Q337 142 327.50 159Q318 176 307.50 186Q297 196 272 205.50Q247 215 234.50 218.50Q222 222 191 230Q129 246 97.50 274.50Q66 303 66 352Q66 411 110 443.50Q154 476 215 476Q314 476 361 404Z"  horiz-adv-x="424" vert-adv-y="1000"  />

      
      <glyph glyph-name="uni74" unicode="&#x74;" d="M284 462L284 432L150 432L150 108Q150 22 230 22Q259 22 283 33L286 2Q255-10 222-10Q172-10 143 19Q114 48 114 102L114 432L15 432L15 462L113 462L113 597L150 597L150 462L284 462Z"  horiz-adv-x="308" vert-adv-y="1000"  />

      
      <glyph glyph-name="uni75" unicode="&#x75;" d="M478 0L442 0Q438 52 438 108L436 108Q416 52 367.50 19.50Q319-13 261-13Q173-13 132.50 42Q92 97 92 182L92 462L128 462L128 192Q128 118 159.50 67.50Q191 17 266 17Q339 17 388 75Q437 133 437 236L437 462L473 462L473 112Q473 47 478 0Z"  horiz-adv-x="575" vert-adv-y="1000"  />

      
      <glyph glyph-name="uni76" unicode="&#x76;" d="M429 462L249 0L206 0L22 462L62 462L227 37L229 37L390 462L429 462Z"  horiz-adv-x="451" vert-adv-y="1000"  />

      
      <glyph glyph-name="uni77" unicode="&#x77;" d="M32 462L70 462L192 42L194 42L335 462L377 462L519 42L521 42L643 462L681 462L542 0L499 0L356 418L354 418L213 0L170 0L32 462Z"  horiz-adv-x="713" vert-adv-y="1000"  />

      
      <glyph glyph-name="uni78" unicode="&#x78;" d="M24 0L207 243L44 462L90 462L230 268L370 462L415 462L252 244L438 0L390 0L229 218L69 0L24 0Z"  horiz-adv-x="462" vert-adv-y="1000"  />

      
      <glyph glyph-name="uni79" unicode="&#x79;" d="M73-241Q46-241 26-235L32-202Q51-209 73-209Q109-209 130.50-185.50Q152-162 167-122L209-9L22 462L62 462L228 31L386 462L425 462L195-142Q157-241 73-241Z"  horiz-adv-x="447" vert-adv-y="1000"  />

      
      <glyph glyph-name="uni7a" unicode="&#x7a;" d="M383 462L383 432L87 31L394 31L394 0L43 0L43 29L342 432L59 432L59 462L383 462Z"  horiz-adv-x="439" vert-adv-y="1000"  />

      
      <glyph glyph-name="uni7b" unicode="&#x7b;" d="M0 273L0 303Q78 303 78 417L78 607Q78 732 184 732L236 732L236 702L189 702Q113 702 113 603L113 413Q113 353 91.50 323.50Q70 294 39 289L39 287Q70 282 91.50 252.50Q113 223 113 163L113-27Q113-126 189-126L236-126L236-156L184-156Q78-156 78-31L78 159Q78 273 0 273Z"  horiz-adv-x="300" vert-adv-y="1000"  />

      
      <glyph glyph-name="uni7c" unicode="&#x7c;" d="M94 750L128 750L128-250L94-250L94 750Z"  horiz-adv-x="222" vert-adv-y="1000"  />

      
      <glyph glyph-name="uni7d" unicode="&#x7d;" d="M300 303L300 273Q222 273 222 159L222-31Q222-156 116-156L64-156L64-126L111-126Q187-126 187-27L187 163Q187 223 208.50 252.50Q230 282 261 287L261 289Q230 294 208.50 323.50Q187 353 187 413L187 603Q187 702 111 702L64 702L64 732L116 732Q222 732 222 607L222 417Q222 303 300 303Z"  horiz-adv-x="300" vert-adv-y="1000"  />

      
      <glyph glyph-name="uni7e" unicode="&#x7e;" d="M552 360L576 337Q518 246 443 246Q393 246 339 281Q297 309 275 318.50Q253 328 227 328Q161 328 116 246L92 268Q149 361 225 361Q277 361 328 326Q396 279 442 279Q501 279 552 360Z"  horiz-adv-x="666" vert-adv-y="1000"  />

      
      <glyph glyph-name="unia1" unicode="&#xa1;" d="M165 290L165-224L127-224L127 290L165 290M179 456Q179 441 169.50 431Q160 421 146 421Q132 421 122.50 431Q113 441 113 456Q113 470 123 480Q133 490 146 490Q159 490 169 480Q179 470 179 456Z"  horiz-adv-x="292" vert-adv-y="1000"  />

      
      <glyph glyph-name="unia2" unicode="&#xa2;" d="M300 20L300 443Q220 435 171.50 375Q123 315 123 231Q123 147 171.50 87Q220 27 300 20M330 443L330 19Q408 22 455 74L482 52Q424-10 330-12L330-72L300-72L300-12Q205-5 145 62.50Q85 130 85 231Q85 331 144.50 399Q204 467 300 474L300 540L330 540L330 475Q422 472 481 408L452 385Q404 441 330 443Z"  horiz-adv-x="566" vert-adv-y="1000"  />

      
      <glyph glyph-name="unia3" unicode="&#xa3;" d="M389 384L389 352L220 352L220 32L478 32L478 0L76 0L76 32L183 32L183 352L85 352L85 384L183 384L183 507Q183 606 230.50 666Q278 726 373 726Q452 726 503 678L479 651Q435 693 372 693Q292 693 256 639.50Q220 586 220 503L220 384L389 384Z"  horiz-adv-x="566" vert-adv-y="1000"  />

      
      <glyph glyph-name="unia4" unicode="&#xa4;" d="M601 472Q656 406 656 310Q656 211 597 142Q642 93 691 48Q688 46 678 35Q668 24 667 23L572 118Q506 61 410 61Q315 61 248 120L151 23Q138 39 127 48L223 144Q166 211 166 310Q166 404 220 471Q215 476 173.50 517Q132 558 127 562Q132 566 152 586L243 495Q312 556 410 556Q510 556 576 496L666 586Q668 584 678 574Q688 564 691 562L601 472M410 522Q317 522 260 461Q203 400 203 310Q203 219 260 157Q317 95 410 95Q504 95 561 157Q618 219 618 310Q618 400 561 461Q504 522 410 522Z"  horiz-adv-x="819" vert-adv-y="1000"  />

      
      <glyph glyph-name="unia5" unicode="&#xa5;" d="M83 223L265 223L265 346L83 346L83 376L253 376L21 708L67 708L284 387L501 708L545 708L315 376L483 376L483 346L301 346L301 223L483 223L483 193L301 193L301 0L265 0L265 193L83 193L83 223Z"  horiz-adv-x="566" vert-adv-y="1000"  />

      
      <glyph glyph-name="unia6" unicode="&#xa6;" d="M96 675L126 675L126 338L96 338L96 675M96 163L126 163L126-174L96-174L96 163Z"  horiz-adv-x="222" vert-adv-y="1000"  />

      
      <glyph glyph-name="unia7" unicode="&#xa7;" d="M454 655L424 635Q388 696 298 696Q242 696 202 665Q162 634 162 578Q162 551 170.50 531.50Q179 512 200.50 497Q222 482 236 475Q250 468 282 454L331 433Q399 404 431.50 371.50Q464 339 464 287Q464 231 429 195.50Q394 160 342 149Q439 104 439 20Q439-53 388-93.50Q337-134 261-134Q145-134 85-51L117-30Q164-101 262-101Q320-101 361-71Q402-41 402 17Q402 61 372 88Q342 115 285 138L221 167Q154 197 126 225.50Q98 254 99 311Q99 365 135 400.50Q171 436 221 447Q173 471 149.50 498Q126 525 126 577Q126 648 176 687.50Q226 727 300 727Q410 727 454 655M303 408L256 427Q207 421 171 392Q135 363 135 310Q135 285 143.50 266Q152 247 173 232.50Q194 218 209 210.50Q224 203 257 189L308 168Q357 173 392 202Q427 231 427 282Q427 330 395.50 356.50Q364 383 303 408Z"  horiz-adv-x="566" vert-adv-y="1000"  />

      
      <glyph glyph-name="unia8" unicode="&#xa8;" d="M5 655Q5 668 14.50 678Q24 688 37 688Q50 688 59.50 678.50Q69 669 69 655Q69 641 59.50 631.50Q50 622 37 622Q24 622 14.50 631.50Q5 641 5 655M180 631.50Q180 631.50 175.50 636.25Q171 641 171 655Q171 669 180.50 678.50Q190 688 203 688Q216 688 225.50 678Q235 668 235 655Q235 641 225.50 631.50Q216 622 203 622Q189 622 180 631.50Z"  horiz-adv-x="240" vert-adv-y="1000"  />

      
      <glyph glyph-name="unia9" unicode="&#xa9;" d="M538 214L564 194Q508 128 415 128Q320 128 258 191.50Q196 255 196 353Q196 451 258 515Q320 579 415 579Q457 579 496 562Q535 545 560 515L532 493Q485 547 415 547Q334 547 283 490Q232 433 232 353Q232 273 282.50 217Q333 161 415 161Q491 161 538 214M20 353Q20 510 131.50 620Q243 730 401 730Q558 730 669 620Q780 510 780 353Q780 197 669 87.50Q558-22 401-22Q243-22 131.50 87.50Q20 197 20 353M54 353Q54 211 155.50 111Q257 11 401 11Q544 11 645 111Q746 211 746 353Q746 496 645 596.50Q544 697 401 697Q257 697 155.50 596.50Q54 496 54 353Z"  horiz-adv-x="800" vert-adv-y="1000"  />

      
      <glyph glyph-name="uniaa" unicode="&#xaa;" d="M259 605L259 615Q259 654 237 674Q215 694 175 694Q119 694 80 657L63 679Q106 720 177 720Q230 720 260 692.50Q290 665 290 616L290 492Q290 456 295 431L265 431Q260 454 260 488L259 488Q224 424 147 424Q108 424 77 445.50Q46 467 46 510Q46 541 63 561Q80 581 113.50 590Q147 599 179.50 602Q212 605 259 605M259 580L244 580Q207 580 181 577.50Q155 575 129.50 568.50Q104 562 91 547Q78 532 78 510Q78 479 100.50 465Q123 451 155 451Q203 451 231 481.50Q259 512 259 557L259 580Z"  horiz-adv-x="353" vert-adv-y="1000"  />

      
      <glyph glyph-name="uniab" unicode="&#xab;" d="M226 420L112 238L227 56L201 37L73 238L200 438L226 420M397 420L283 238L398 56L372 37L244 238L371 438L397 420Z"  horiz-adv-x="481" vert-adv-y="1000"  />

      
      <glyph glyph-name="uniac" unicode="&#xac;" d="M578 402L578 133L544 133L544 370L89 370L89 402L578 402Z"  horiz-adv-x="666" vert-adv-y="1000"  />

      
      <glyph glyph-name="uniad" unicode="&#xad;" d="M250 266L250 235L56 235L56 266L250 266Z"  horiz-adv-x="306" vert-adv-y="1000"  />

      
      <glyph glyph-name="uniae" unicode="&#xae;" d="M139 334.50Q139 334.50 105.50 367.25Q72 400 72 494Q72 588 139 654Q206 720 301 720Q395 720 461.50 654Q528 588 528 494Q528 400 461.50 334.50Q395 269 301 269Q206 269 139 334.50M157.50 636Q157.50 636 127.75 606.50Q98 577 98 494Q98 411 157.50 351.50Q217 292 301 292Q384 292 443 351.50Q502 411 502 494Q502 577 443 636Q384 695 301 695Q217 695 157.50 636M220 369L220 622L306 622Q345 622 368.50 603.50Q392 585 392 550Q392 521 373 503Q354 485 327 482L402 369L367 369L297 479L249 479L249 369L220 369M249 502L293 502Q363 502 363 551Q363 597 305 597L249 597L249 502Z"  horiz-adv-x="600" vert-adv-y="1000"  />

      
      <glyph glyph-name="uniaf" unicode="&#xaf;" d="M242 645L242 615L-2 615L-2 645L242 645Z"  horiz-adv-x="240" vert-adv-y="1000"  />

      
      <glyph glyph-name="unib0" unicode="&#xb0;" d="M304 674.50Q304 674.50 325 653.25Q346 632 346 571Q346 510 304 467.50Q262 425 200 425Q138 425 96 467.50Q54 510 54 571Q54 632 96 674.50Q138 717 200 717Q262 717 304 674.50M283.50 487.50Q283.50 487.50 300.75 504.75Q318 522 318 571Q318 620 283.50 654.50Q249 689 200 689Q151 689 116.50 654.50Q82 620 82 571Q82 522 116.50 487.50Q151 453 200 453Q249 453 283.50 487.50Z"  horiz-adv-x="400" vert-adv-y="1000"  />

      
      <glyph glyph-name="unib1" unicode="&#xb1;" d="M89 344L89 376L314 376L314 560L348 560L348 376L578 376L578 344L348 344L348 164L315 164L315 344L89 344M92 48L92 80L575 80L575 48L92 48Z"  horiz-adv-x="666" vert-adv-y="1000"  />

      
      <glyph glyph-name="unib2" unicode="&#xb2;" d="M304 482L304 453L47 453L47 484L205 653Q269 722 269 771Q269 810 245 832Q221 854 183 854Q110 854 91 780L59 787Q70 833 104 858Q138 883 183 883Q238 883 270.50 852.50Q303 822 303 774Q303 736 286 706.50Q269 677 223 628L86 482L304 482Z"  horiz-adv-x="356" vert-adv-y="1000"  />

      
      <glyph glyph-name="unib3" unicode="&#xb3;" d="M166 443Q74 443 39 521L69 532Q82 502 109 487Q136 472 166 472Q211 472 237 497Q263 522 263 566Q263 610 229.50 634.50Q196 659 150 659L130 659L130 687L149 687Q196 687 222.50 711.50Q249 736 249 774Q249 812 225 833.50Q201 855 166 855Q111 855 84 810L58 825Q96 883 166 883Q220 883 250.50 854Q281 825 281 775Q281 735 259.50 709Q238 683 201 675Q200 674 200 673Q244 665 269.50 637Q295 609 295 566Q295 508 258.50 475.50Q222 443 166 443Z"  horiz-adv-x="356" vert-adv-y="1000"  />

      
      <glyph glyph-name="unib4" unicode="&#xb4;" d="M229 708L112 564L80 564L182 708L229 708Z"  horiz-adv-x="240" vert-adv-y="1000"  />

      
      <glyph glyph-name="unib5" unicode="&#xb5;" d="M87-228L87 462L123 462L123 192Q123 18 262 18Q335 18 383.50 75Q432 132 432 229L432 462L467 462L467 112L471 0L433 0L433 107L431 107Q410 52 361 19.50Q312-13 256-13Q164-13 123 55L123-228L87-228Z"  horiz-adv-x="556" vert-adv-y="1000"  />

      
      <glyph glyph-name="unib6" unicode="&#xb6;" d="M496 708L496-126L461-126L461 680L315 680L315-126L280-126L280 333Q185 333 126 385.50Q67 438 67 514Q67 608 126 658Q185 708 291 708L496 708Z"  horiz-adv-x="600" vert-adv-y="1000"  />

      
      <glyph glyph-name="unib7" unicode="&#xb7;" d="M146.50 297Q146.50 297 151.25 292Q156 287 156 273Q156 259 146.50 249Q137 239 123 239Q110 239 100.50 249Q91 259 91 273Q91 287 100.50 297Q110 307 123 307Q137 307 146.50 297Z"  horiz-adv-x="246" vert-adv-y="1000"  />

      
      <glyph glyph-name="unib8" unicode="&#xb8;" d="M143 0L88-83Q110-76 136-76Q171-76 196-93Q221-110 221-145Q221-189 186-208Q151-227 107-227Q61-227 16-207L24-184Q59-201 106-201Q138-201 163-188Q188-175 188-145Q188-98 122-98Q85-98 61-111L48-100L115 0L143 0Z"  horiz-adv-x="240" vert-adv-y="1000"  />

      
      <glyph glyph-name="unib9" unicode="&#xb9;" d="M204 874L204 453L170 453L170 835L84 773L63 797L173 874L204 874Z"  horiz-adv-x="356" vert-adv-y="1000"  />

      
      <glyph glyph-name="uniba" unicode="&#xba;" d="M281.50 679.50Q281.50 679.50 301.75 658.75Q322 638 322 573Q322 508 281.50 466Q241 424 177 424Q113 424 72 466Q31 508 31 573Q31 638 72 679.50Q113 721 177 721Q241 721 281.50 679.50M259.50 485.50Q259.50 485.50 274.75 503.25Q290 521 290 573Q290 625 259.50 659.50Q229 694 177 694Q125 694 94 659Q63 624 63 573Q63 521 94 485.50Q125 450 177 450Q229 450 259.50 485.50Z"  horiz-adv-x="353" vert-adv-y="1000"  />

      
      <glyph glyph-name="unibb" unicode="&#xbb;" d="M255 56L369 238L255 420L280 439L409 238L281 38L255 56M84 56L198 238L84 420L109 439L238 238L110 38L84 56Z"  horiz-adv-x="481" vert-adv-y="1000"  />

      
      <glyph glyph-name="unibc" unicode="&#xbc;" d="M687 424L687 133L752 133L752 104L687 104L687 0L656 0L656 104L463 104L463 135L645 424L687 424M656 383L653 383L496 133L656 133L656 383M204 708L204 287L170 287L170 669L84 607L63 631L173 708L204 708M629 721L186-28L159-12L602 737L629 721Z"  horiz-adv-x="812" vert-adv-y="1000"  />

      
      <glyph glyph-name="unibd" unicode="&#xbd;" d="M745 29L745 0L488 0L488 31L646 200Q710 268 710 318Q710 357 686 379Q662 401 623 401Q551 401 532 327L500 334Q511 380 544.50 405Q578 430 623 430Q678 430 711 399.50Q744 369 744 322Q744 283 727.50 254Q711 225 665 176L528 29L745 29M629 721L186-28L159-12L602 737L629 721M204 708L204 287L170 287L170 669L84 607L63 631L186 708L204 708Z"  horiz-adv-x="812" vert-adv-y="1000"  />

      
      <glyph glyph-name="unibe" unicode="&#xbe;" d="M656 0L656 104L463 104L463 135L645 424L687 424L687 133L752 133L752 104L687 104L687 0L656 0M166 280Q74 280 39 358L69 369Q82 339 109 324Q136 309 166 309Q211 309 237 334Q263 359 263 403Q263 447 229.50 471.50Q196 496 150 496L130 496L130 524L149 524Q196 524 222.50 548.50Q249 573 249 611Q249 649 225 670.50Q201 692 166 692Q111 692 84 647L58 662Q96 720 166 720Q220 720 250.50 691Q281 662 281 612Q281 572 259 546Q237 520 200 512L200 510Q244 502 269.50 474Q295 446 295 403Q295 345 258.50 312.50Q222 280 166 280M496 133L656 133L656 383L653 383L496 133M629 721L186-28L159-12L602 737L629 721Z"  horiz-adv-x="812" vert-adv-y="1000"  />

      
      <glyph glyph-name="unibf" unicode="&#xbf;" d="M219 242L219 286L256 286L256 231Q256 186 236.50 151Q217 116 162 71Q121 38 103 8Q85-22 85-67Q85-132 127.50-169.50Q170-207 235-207Q297-207 338.50-169.50Q380-132 389-71L425-77Q411-154 359-197Q307-240 232-240Q152-240 99.50-194.50Q47-149 47-69Q47-12 69.50 22Q92 56 138 94Q187 135 203 163.50Q219 192 219 242M201 456Q201 470 211 480Q221 490 234 490Q247 490 256.50 480Q266 470 266 456Q266 441 257 431Q248 421 234 421Q220 421 210.50 431Q201 441 201 456Z"  horiz-adv-x="475" vert-adv-y="1000"  />

      
      <glyph glyph-name="unic0" unicode="&#xc0;" d="M140 198L57 0L16 0L322 708L363 708L661 0L620 0L538 198L140 198M341 674L154 231L524 231L341 674M329 764L212 908L259 908L361 764L329 764Z"  horiz-adv-x="677" vert-adv-y="1000"  />

      
      <glyph glyph-name="unic1" unicode="&#xc1;" d="M140 198L57 0L16 0L322 708L363 708L661 0L620 0L538 198L140 198M341 674L154 231L524 231L341 674M472 908L355 764L323 764L425 908L472 908Z"  horiz-adv-x="677" vert-adv-y="1000"  />

      
      <glyph glyph-name="unic2" unicode="&#xc2;" d="M140 198L57 0L16 0L322 708L363 708L661 0L620 0L538 198L140 198M341 674L154 231L524 231L341 674M364 908L469 764L433 764L342 889L251 764L215 764L320 908L364 908Z"  horiz-adv-x="677" vert-adv-y="1000"  />

      
      <glyph glyph-name="unic3" unicode="&#xc3;" d="M140 198L57 0L16 0L322 708L363 708L661 0L620 0L538 198L140 198M341 674L154 231L524 231L341 674M235 787L211 787Q216 824 233.50 846Q251 868 278 868Q304 868 345 844Q385 820 406 820Q441 820 449 869L474 869Q463 790 406 790Q380 790 340 814Q301 838 278 838Q245 838 235 787Z"  horiz-adv-x="677" vert-adv-y="1000"  />

      
      <glyph glyph-name="unic4" unicode="&#xc4;" d="M140 198L57 0L16 0L322 708L363 708L661 0L620 0L538 198L140 198M341 674L154 231L524 231L341 674M227 855Q227 868 236.50 878Q246 888 259 888Q272 888 281.50 878.50Q291 869 291 855Q291 841 281.50 831.50Q272 822 259 822Q246 822 236.50 831.50Q227 841 227 855M402 831.50Q402 831.50 397.50 836.25Q393 841 393 855Q393 869 402.50 878.50Q412 888 425 888Q438 888 447.50 878Q457 868 457 855Q457 841 447.50 831.50Q438 822 425 822Q411 822 402 831.50Z"  horiz-adv-x="677" vert-adv-y="1000"  />

      
      <glyph glyph-name="unic5" unicode="&#xc5;" d="M140 198L57 0L16 0L322 708L363 708L661 0L620 0L538 198L140 198M341 674L154 231L524 231L341 674M409.50 917.50Q409.50 917.50 423.75 903.75Q438 890 438 850Q438 810 409.50 782.50Q381 755 342 755Q303 755 274.50 782.50Q246 810 246 850Q246 890 274.50 917.50Q303 945 342 945Q381 945 409.50 917.50M393 799Q393 799 403.50 809.50Q414 820 414 850Q414 880 393 901Q372 922 342 922Q312 922 291 901Q270 880 270 850Q270 820 291 799Q312 778 342 778Q372 778 393 799Z"  horiz-adv-x="677" vert-adv-y="1000"  />

      
      <glyph glyph-name="unic6" unicode="&#xc6;" d="M537 351L537 34L919 34L919 0L500 0L500 204L193 204L60 0L17 0L477 708L904 708L904 674L537 674L537 384L880 384L880 351L537 351M213 237L500 237L500 674L495 674L213 237Z"  horiz-adv-x="975" vert-adv-y="1000"  />

      
      <glyph glyph-name="unic7" unicode="&#xc7;" d="M659 117L687 95Q646 42 579 12Q512-18 435-19L393-83Q415-76 441-76Q476-76 501-93Q526-110 526-145Q526-189 491-208Q456-227 412-227Q366-227 321-207L329-184Q364-201 411-201Q443-201 468-188Q493-175 493-145Q493-98 427-98Q390-98 366-111L353-100L408-18Q257-10 162 94Q67 198 67 354Q67 516 170 621.50Q273 727 431 727Q502 727 566 701.50Q630 676 670 630L643 605Q608 646 550 669.50Q492 693 431 693Q287 693 196.50 595Q106 497 106 354Q106 211 196 113Q286 15 431 15Q498 15 559.50 41Q621 67 659 117Z"  horiz-adv-x="723" vert-adv-y="1000"  />

      
      <glyph glyph-name="unic8" unicode="&#xc8;" d="M139 351L139 34L537 34L537 0L102 0L102 708L523 708L523 674L139 674L139 384L499 384L499 351L139 351M316 764L199 908L246 908L348 764L316 764Z"  horiz-adv-x="591" vert-adv-y="1000"  />

      
      <glyph glyph-name="unic9" unicode="&#xc9;" d="M139 351L139 34L537 34L537 0L102 0L102 708L523 708L523 674L139 674L139 384L499 384L499 351L139 351M429 908L312 764L280 764L382 908L429 908Z"  horiz-adv-x="591" vert-adv-y="1000"  />

      
      <glyph glyph-name="unica" unicode="&#xca;" d="M139 351L139 34L537 34L537 0L102 0L102 708L523 708L523 674L139 674L139 384L499 384L499 351L139 351M337 908L442 764L406 764L315 889L224 764L188 764L293 908L337 908Z"  horiz-adv-x="591" vert-adv-y="1000"  />

      
      <glyph glyph-name="unicb" unicode="&#xcb;" d="M139 351L139 34L537 34L537 0L102 0L102 708L523 708L523 674L139 674L139 384L499 384L499 351L139 351M201 855Q201 868 210.50 878Q220 888 233 888Q246 888 255.50 878.50Q265 869 265 855Q265 841 255.50 831.50Q246 822 233 822Q220 822 210.50 831.50Q201 841 201 855M376 831.50Q376 831.50 371.50 836.25Q367 841 367 855Q367 869 376.50 878.50Q386 888 399 888Q412 888 421.50 878Q431 868 431 855Q431 841 421.50 831.50Q412 822 399 822Q385 822 376 831.50Z"  horiz-adv-x="591" vert-adv-y="1000"  />

      
      <glyph glyph-name="unicc" unicode="&#xcc;" d="M140 708L140 0L102 0L102 708L140 708M108 764L-9 908L38 908L140 764L108 764Z"  horiz-adv-x="242" vert-adv-y="1000"  />

      
      <glyph glyph-name="unicd" unicode="&#xcd;" d="M140 708L140 0L102 0L102 708L140 708M250 908L133 764L101 764L203 908L250 908Z"  horiz-adv-x="242" vert-adv-y="1000"  />

      
      <glyph glyph-name="unice" unicode="&#xce;" d="M140 708L140 0L102 0L102 708L140 708M142 908L247 764L211 764L120 889L29 764L-7 764L98 908L142 908Z"  horiz-adv-x="242" vert-adv-y="1000"  />

      
      <glyph glyph-name="unicf" unicode="&#xcf;" d="M140 708L140 0L102 0L102 708L140 708M6 855Q6 868 15.50 878Q25 888 38 888Q51 888 60.50 878.50Q70 869 70 855Q70 841 60.50 831.50Q51 822 38 822Q25 822 15.50 831.50Q6 841 6 855M181 831.50Q181 831.50 176.50 836.25Q172 841 172 855Q172 869 181.50 878.50Q191 888 204 888Q217 888 226.50 878Q236 868 236 855Q236 841 226.50 831.50Q217 822 204 822Q190 822 181 831.50Z"  horiz-adv-x="242" vert-adv-y="1000"  />

      
      <glyph glyph-name="unid0" unicode="&#xd0;" d="M100 0L100 355L22 355L22 385L100 385L100 708L311 708Q477 708 586.50 617.50Q696 527 696 354Q696 266 665 197Q634 128 580.50 85.50Q527 43 458.50 21.50Q390 0 311 0L100 0M138 355L138 34L301 34Q463 34 559.50 118Q656 202 656 354Q656 506 559.50 590Q463 674 301 674L138 674L138 385L403 385L403 355L138 355Z"  horiz-adv-x="766" vert-adv-y="1000"  />

      
      <glyph glyph-name="unid1" unicode="&#xd1;" d="M152 708L631 52L633 52L633 708L671 708L671 0L621 0L142 658L140 658L140 0L102 0L102 708L152 708M283 787L259 787Q264 824 281.50 846Q299 868 326 868Q352 868 393 844Q433 820 454 820Q489 820 497 869L522 869Q511 790 454 790Q428 790 388 814Q349 838 326 838Q293 838 283 787Z"  horiz-adv-x="773" vert-adv-y="1000"  />

      
      <glyph glyph-name="unid2" unicode="&#xd2;" d="M694.50 621.50Q694.50 621.50 746.25 568.75Q798 516 798 354Q798 192 694 86.50Q590-19 433-19Q275-19 171 86.50Q67 192 67 354Q67 516 170.50 621.50Q274 727 433 727Q591 727 694.50 621.50M668.50 113Q668.50 113 713.75 162Q759 211 759 354Q759 497 668 595.50Q577 694 433 694Q289 694 197.50 595.50Q106 497 106 354Q106 211 197 113Q288 15 433 15Q578 15 668.50 113M448 764L331 908L378 908L480 764L448 764Z"  horiz-adv-x="865" vert-adv-y="1000"  />

      
      <glyph glyph-name="unid3" unicode="&#xd3;" d="M694.50 621.50Q694.50 621.50 746.25 568.75Q798 516 798 354Q798 192 694 86.50Q590-19 433-19Q275-19 171 86.50Q67 192 67 354Q67 516 170.50 621.50Q274 727 433 727Q591 727 694.50 621.50M668.50 113Q668.50 113 713.75 162Q759 211 759 354Q759 497 668 595.50Q577 694 433 694Q289 694 197.50 595.50Q106 497 106 354Q106 211 197 113Q288 15 433 15Q578 15 668.50 113M546 908L429 764L397 764L499 908L546 908Z"  horiz-adv-x="865" vert-adv-y="1000"  />

      
      <glyph glyph-name="unid4" unicode="&#xd4;" d="M694.50 621.50Q694.50 621.50 746.25 568.75Q798 516 798 354Q798 192 694 86.50Q590-19 433-19Q275-19 171 86.50Q67 192 67 354Q67 516 170.50 621.50Q274 727 433 727Q591 727 694.50 621.50M668.50 113Q668.50 113 713.75 162Q759 211 759 354Q759 497 668 595.50Q577 694 433 694Q289 694 197.50 595.50Q106 497 106 354Q106 211 197 113Q288 15 433 15Q578 15 668.50 113M456 908L561 764L525 764L434 889L343 764L307 764L412 908L456 908Z"  horiz-adv-x="865" vert-adv-y="1000"  />

      
      <glyph glyph-name="unid5" unicode="&#xd5;" d="M694.50 621.50Q694.50 621.50 746.25 568.75Q798 516 798 354Q798 192 694 86.50Q590-19 433-19Q275-19 171 86.50Q67 192 67 354Q67 516 170.50 621.50Q274 727 433 727Q591 727 694.50 621.50M668.50 113Q668.50 113 713.75 162Q759 211 759 354Q759 497 668 595.50Q577 694 433 694Q289 694 197.50 595.50Q106 497 106 354Q106 211 197 113Q288 15 433 15Q578 15 668.50 113M327 787L303 787Q308 824 325.50 846Q343 868 370 868Q396 868 437 844Q477 820 498 820Q533 820 541 869L566 869Q555 790 498 790Q472 790 432 814Q393 838 370 838Q337 838 327 787Z"  horiz-adv-x="865" vert-adv-y="1000"  />

      
      <glyph glyph-name="unid6" unicode="&#xd6;" d="M694.50 621.50Q694.50 621.50 746.25 568.75Q798 516 798 354Q798 192 694 86.50Q590-19 433-19Q275-19 171 86.50Q67 192 67 354Q67 516 170.50 621.50Q274 727 433 727Q591 727 694.50 621.50M668.50 113Q668.50 113 713.75 162Q759 211 759 354Q759 497 668 595.50Q577 694 433 694Q289 694 197.50 595.50Q106 497 106 354Q106 211 197 113Q288 15 433 15Q578 15 668.50 113M319 855Q319 868 328.50 878Q338 888 351 888Q364 888 373.50 878.50Q383 869 383 855Q383 841 373.50 831.50Q364 822 351 822Q338 822 328.50 831.50Q319 841 319 855M494 831.50Q494 831.50 489.50 836.25Q485 841 485 855Q485 869 494.50 878.50Q504 888 517 888Q530 888 539.50 878Q549 868 549 855Q549 841 539.50 831.50Q530 822 517 822Q503 822 494 831.50Z"  horiz-adv-x="865" vert-adv-y="1000"  />

      
      <glyph glyph-name="unid7" unicode="&#xd7;" d="M160 502L334 329L507 502L529 480L356 306L529 133L506 111L334 283L161 111L138 133L312 306L138 480L160 502Z"  horiz-adv-x="666" vert-adv-y="1000"  />

      
      <glyph glyph-name="unid8" unicode="&#xd8;" d="M748 707L679 628Q789 523 789 354Q789 192 685 86.50Q581-19 424-19Q282-19 183 66L113-13L92 7L162 86Q58 190 58 354Q58 516 161.50 621.50Q265 727 424 727Q557 727 657 648L727 727L748 707M654 600L208 93Q297 14 424 14Q569 14 659.50 112.50Q750 211 750 354Q750 504 654 600M187 114L633 621Q545 694 424 694Q280 694 188.50 595.50Q97 497 97 354Q97 209 187 114Z"  horiz-adv-x="865" vert-adv-y="1000"  />

      
      <glyph glyph-name="unid9" unicode="&#xd9;" d="M363-19Q289-19 235 4.50Q181 28 151.50 69.50Q122 111 108 160Q94 209 94 267L94 708L132 708L132 272Q132 235 137.50 202Q143 169 158 133.50Q173 98 198 72.50Q223 47 265 30.50Q307 14 363 14Q430 14 478 37.50Q526 61 550 101Q574 141 584 182.50Q594 224 594 272L594 708L631 708L631 267Q631 209 617 160Q603 111 573.50 69.50Q544 28 490 4.50Q436-19 363-19M373 764L256 908L303 908L405 764L373 764Z"  horiz-adv-x="725" vert-adv-y="1000"  />

      
      <glyph glyph-name="unida" unicode="&#xda;" d="M363-19Q289-19 235 4.50Q181 28 151.50 69.50Q122 111 108 160Q94 209 94 267L94 708L132 708L132 272Q132 235 137.50 202Q143 169 158 133.50Q173 98 198 72.50Q223 47 265 30.50Q307 14 363 14Q430 14 478 37.50Q526 61 550 101Q574 141 584 182.50Q594 224 594 272L594 708L631 708L631 267Q631 209 617 160Q603 111 573.50 69.50Q544 28 490 4.50Q436-19 363-19M467 908L350 764L318 764L420 908L467 908Z"  horiz-adv-x="725" vert-adv-y="1000"  />

      
      <glyph glyph-name="unidb" unicode="&#xdb;" d="M363-19Q289-19 235 4.50Q181 28 151.50 69.50Q122 111 108 160Q94 209 94 267L94 708L132 708L132 272Q132 235 137.50 202Q143 169 158 133.50Q173 98 198 72.50Q223 47 265 30.50Q307 14 363 14Q430 14 478 37.50Q526 61 550 101Q574 141 584 182.50Q594 224 594 272L594 708L631 708L631 267Q631 209 617 160Q603 111 573.50 69.50Q544 28 490 4.50Q436-19 363-19M385 908L490 764L454 764L363 889L272 764L236 764L341 908L385 908Z"  horiz-adv-x="725" vert-adv-y="1000"  />

      
      <glyph glyph-name="unidc" unicode="&#xdc;" d="M363-19Q289-19 235 4.50Q181 28 151.50 69.50Q122 111 108 160Q94 209 94 267L94 708L132 708L132 272Q132 235 137.50 202Q143 169 158 133.50Q173 98 198 72.50Q223 47 265 30.50Q307 14 363 14Q430 14 478 37.50Q526 61 550 101Q574 141 584 182.50Q594 224 594 272L594 708L631 708L631 267Q631 209 617 160Q603 111 573.50 69.50Q544 28 490 4.50Q436-19 363-19M248 855Q248 868 257.50 878Q267 888 280 888Q293 888 302.50 878.50Q312 869 312 855Q312 841 302.50 831.50Q293 822 280 822Q267 822 257.50 831.50Q248 841 248 855M423 831.50Q423 831.50 418.50 836.25Q414 841 414 855Q414 869 423.50 878.50Q433 888 446 888Q459 888 468.50 878Q478 868 478 855Q478 841 468.50 831.50Q459 822 446 822Q432 822 423 831.50Z"  horiz-adv-x="725" vert-adv-y="1000"  />

      
      <glyph glyph-name="unidd" unicode="&#xdd;" d="M298 308L298 0L260 0L260 308L10 708L56 708L280 342L504 708L547 708L298 308M409 908L292 764L260 764L362 908L409 908Z"  horiz-adv-x="558" vert-adv-y="1000"  />

      
      <glyph glyph-name="unide" unicode="&#xde;" d="M102 0L102 708L140 708L140 551L297 551Q393 551 457.50 507.50Q522 464 522 371Q522 283 461 234Q400 185 305 185L140 185L140 0L102 0M140 518L140 218L303 218Q381 218 432 256Q483 294 483 371Q483 447 430.50 482.50Q378 518 299 518L140 518Z"  horiz-adv-x="574" vert-adv-y="1000"  />

      
      <glyph glyph-name="unidf" unicode="&#xdf;" d="M134 537L134 0L98 0L98 540Q98 639 148.50 703.50Q199 768 299 768Q380 768 432.50 720.50Q485 673 485 594Q485 528 450 486.50Q415 445 355 430L355 428Q434 418 483.50 363.50Q533 309 533 213Q533 112 471 50.50Q409-11 305-11Q287-11 255-7L255 25Q279 21 302 21Q390 21 442.50 73.50Q495 126 495 214Q495 311 438.50 361Q382 411 291 411L278 411L278 444L291 444Q361 444 405 483Q449 522 449 593Q449 660 407 698Q365 736 299 736Q253 736 219.50 719Q186 702 168 672Q150 642 142 609Q134 576 134 537Z"  horiz-adv-x="591" vert-adv-y="1000"  />

      
      <glyph glyph-name="unie0" unicode="&#xe0;" d="M219-13Q157-13 110 21.50Q63 56 63 122Q63 275 327 275L393 275L393 305Q393 375 356 410Q319 445 252 445Q172 445 112 390L92 416Q158 476 254 476Q335 476 381.50 433.50Q428 391 428 307L428 104Q428 40 436 0L402 0Q395 44 395 99L392 99Q370 43 323.50 15Q277-13 219-13M225 17Q310 17 351.50 75.50Q393 134 393 219L393 246L337 246Q99 246 99 123Q99 69 137 43Q175 17 225 17M275 564L158 708L205 708L307 564L275 564Z"  horiz-adv-x="519" vert-adv-y="1000"  />

      
      <glyph glyph-name="unie1" unicode="&#xe1;" d="M219-13Q157-13 110 21.50Q63 56 63 122Q63 275 327 275L393 275L393 305Q393 375 356 410Q319 445 252 445Q172 445 112 390L92 416Q158 476 254 476Q335 476 381.50 433.50Q428 391 428 307L428 104Q428 40 436 0L402 0Q395 44 395 99L392 99Q370 43 323.50 15Q277-13 219-13M225 17Q310 17 351.50 75.50Q393 134 393 219L393 246L337 246Q99 246 99 123Q99 69 137 43Q175 17 225 17M376 708L259 564L227 564L329 708L376 708Z"  horiz-adv-x="519" vert-adv-y="1000"  />

      
      <glyph glyph-name="unie2" unicode="&#xe2;" d="M219-13Q157-13 110 21.50Q63 56 63 122Q63 275 327 275L393 275L393 305Q393 375 356 410Q319 445 252 445Q172 445 112 390L92 416Q158 476 254 476Q335 476 381.50 433.50Q428 391 428 307L428 104Q428 40 436 0L402 0Q395 44 395 99L392 99Q370 43 323.50 15Q277-13 219-13M225 17Q310 17 351.50 75.50Q393 134 393 219L393 246L337 246Q99 246 99 123Q99 69 137 43Q175 17 225 17M277 708L382 564L346 564L255 689L164 564L128 564L233 708L277 708Z"  horiz-adv-x="519" vert-adv-y="1000"  />

      
      <glyph glyph-name="unie3" unicode="&#xe3;" d="M219-13Q157-13 110 21.50Q63 56 63 122Q63 275 327 275L393 275L393 305Q393 375 356 410Q319 445 252 445Q172 445 112 390L92 416Q158 476 254 476Q335 476 381.50 433.50Q428 391 428 307L428 104Q428 40 436 0L402 0Q395 44 395 99L392 99Q370 43 323.50 15Q277-13 219-13M225 17Q310 17 351.50 75.50Q393 134 393 219L393 246L337 246Q99 246 99 123Q99 69 137 43Q175 17 225 17M148 587L124 587Q129 624 146.50 646Q164 668 191 668Q218 668 258 644Q298 620 319 620Q354 620 362 669L387 669Q376 590 319 590Q293 590 253 614Q214 638 191 638Q158 638 148 587Z"  horiz-adv-x="519" vert-adv-y="1000"  />

      
      <glyph glyph-name="unie4" unicode="&#xe4;" d="M219-13Q157-13 110 21.50Q63 56 63 122Q63 275 327 275L393 275L393 305Q393 375 356 410Q319 445 252 445Q172 445 112 390L92 416Q158 476 254 476Q335 476 381.50 433.50Q428 391 428 307L428 104Q428 40 436 0L402 0Q395 44 395 99L392 99Q370 43 323.50 15Q277-13 219-13M225 17Q310 17 351.50 75.50Q393 134 393 219L393 246L337 246Q99 246 99 123Q99 69 137 43Q175 17 225 17M141 655Q141 668 150.50 678Q160 688 173 688Q186 688 195.50 678.50Q205 669 205 655Q205 641 195.50 631.50Q186 622 173 622Q160 622 150.50 631.50Q141 641 141 655M316 631.50Q316 631.50 311.50 636.25Q307 641 307 655Q307 669 316.50 678.50Q326 688 339 688Q352 688 361.50 678Q371 668 371 655Q371 641 361.50 631.50Q352 622 339 622Q325 622 316 631.50Z"  horiz-adv-x="519" vert-adv-y="1000"  />

      
      <glyph glyph-name="unie5" unicode="&#xe5;" d="M219-13Q157-13 110 21.50Q63 56 63 122Q63 275 327 275L393 275L393 305Q393 375 356 410Q319 445 252 445Q172 445 112 390L92 416Q158 476 254 476Q335 476 381.50 433.50Q428 391 428 307L428 104Q428 40 436 0L402 0Q395 44 395 99L392 99Q370 43 323.50 15Q277-13 219-13M225 17Q310 17 351.50 75.50Q393 134 393 219L393 246L337 246Q99 246 99 123Q99 69 137 43Q175 17 225 17M323.50 717.50Q323.50 717.50 337.75 703.75Q352 690 352 650Q352 610 323.50 582.50Q295 555 256 555Q217 555 188.50 582.50Q160 610 160 650Q160 690 188.50 717.50Q217 745 256 745Q295 745 323.50 717.50M307 599Q307 599 317.50 609.50Q328 620 328 650Q328 680 307 701Q286 722 256 722Q226 722 205 701Q184 680 184 650Q184 620 205 599Q226 578 256 578Q286 578 307 599Z"  horiz-adv-x="519" vert-adv-y="1000"  />

      
      <glyph glyph-name="unie6" unicode="&#xe6;" d="M224-13Q158-13 110.50 19Q63 51 63 116Q63 260 328 260L399 260L399 297Q399 367 361.50 406Q324 445 255 445Q174 445 111 390L91 415Q158 476 258 476Q331 476 373.50 442Q416 408 425 352Q451 408 500 442Q549 476 610 476Q707 476 761.50 410.50Q816 345 816 252L816 229L433 229Q433 145 482 82Q531 19 618 19Q717 19 774 101L799 80Q730-13 618-13Q548-13 495.50 25Q443 63 420 129Q406 64 355.50 25.50Q305-13 224-13M228 17Q317 17 358 65.50Q399 114 399 188L399 229L341 229Q291 229 253 225Q215 221 177.50 210Q140 199 120 175Q100 151 100 116Q100 63 138 40Q176 17 228 17M434 260L780 260Q778 343 731.50 394Q685 445 609 445Q530 445 482.50 383.50Q435 322 434 260Z"  horiz-adv-x="876" vert-adv-y="1000"  />

      
      <glyph glyph-name="unie7" unicode="&#xe7;" d="M454 410L429 387Q379 445 299 445Q209 445 153.50 383Q98 321 98 231Q98 141 153.50 80Q209 19 299 19Q379 19 436 73L458 51Q400-10 308-13L262-83Q284-76 310-76Q345-76 370-93Q395-110 395-145Q395-189 360-208Q325-227 281-227Q235-227 190-207L198-184Q233-201 280-201Q312-201 337-188Q362-175 362-145Q362-98 296-98Q259-98 235-111L222-100L280-12Q182-6 121 61.50Q60 129 60 231Q60 337 127 406.50Q194 476 299 476Q396 476 454 410Z"  horiz-adv-x="486" vert-adv-y="1000"  />

      
      <glyph glyph-name="unie8" unicode="&#xe8;" d="M98 259L465 259Q463 342 413.50 393.50Q364 445 284 445Q226 445 182 412.50Q138 380 118.50 339Q99 298 98 259M293-13Q191-13 125.50 57Q60 127 60 235Q60 339 124.50 407.50Q189 476 284 476Q387 476 444 410Q501 344 501 251Q501 248 500.50 240Q500 232 500 229L97 229Q98 144 150.50 81Q203 18 293 18Q391 18 458 100L483 79Q411-13 293-13M291 564L174 708L221 708L323 564L291 564Z"  horiz-adv-x="561" vert-adv-y="1000"  />

      
      <glyph glyph-name="unie9" unicode="&#xe9;" d="M98 259L465 259Q463 342 413.50 393.50Q364 445 284 445Q226 445 182 412.50Q138 380 118.50 339Q99 298 98 259M293-13Q191-13 125.50 57Q60 127 60 235Q60 339 124.50 407.50Q189 476 284 476Q387 476 444 410Q501 344 501 251Q501 248 500.50 240Q500 232 500 229L97 229Q98 144 150.50 81Q203 18 293 18Q391 18 458 100L483 79Q411-13 293-13M404 708L287 564L255 564L357 708L404 708Z"  horiz-adv-x="561" vert-adv-y="1000"  />

      
      <glyph glyph-name="uniea" unicode="&#xea;" d="M98 259L465 259Q463 342 413.50 393.50Q364 445 284 445Q226 445 182 412.50Q138 380 118.50 339Q99 298 98 259M293-13Q191-13 125.50 57Q60 127 60 235Q60 339 124.50 407.50Q189 476 284 476Q387 476 444 410Q501 344 501 251Q501 248 500.50 240Q500 232 500 229L97 229Q98 144 150.50 81Q203 18 293 18Q391 18 458 100L483 79Q411-13 293-13M312 708L417 564L381 564L290 689L199 564L163 564L268 708L312 708Z"  horiz-adv-x="561" vert-adv-y="1000"  />

      
      <glyph glyph-name="unieb" unicode="&#xeb;" d="M98 259L465 259Q463 342 413.50 393.50Q364 445 284 445Q226 445 182 412.50Q138 380 118.50 339Q99 298 98 259M293-13Q191-13 125.50 57Q60 127 60 235Q60 339 124.50 407.50Q189 476 284 476Q387 476 444 410Q501 344 501 251Q501 248 500.50 240Q500 232 500 229L97 229Q98 144 150.50 81Q203 18 293 18Q391 18 458 100L483 79Q411-13 293-13M173 655Q173 668 182.50 678Q192 688 205 688Q218 688 227.50 678.50Q237 669 237 655Q237 641 227.50 631.50Q218 622 205 622Q192 622 182.50 631.50Q173 641 173 655M348 631.50Q348 631.50 343.50 636.25Q339 641 339 655Q339 669 348.50 678.50Q358 688 371 688Q384 688 393.50 678Q403 668 403 655Q403 641 393.50 631.50Q384 622 371 622Q357 622 348 631.50Z"  horiz-adv-x="561" vert-adv-y="1000"  />

      
      <glyph glyph-name="uniec" unicode="&#xec;" d="M135 462L135 0L99 0L99 462L135 462M103 564L-14 708L33 708L135 564L103 564Z"  horiz-adv-x="233" vert-adv-y="1000"  />

      
      <glyph glyph-name="unied" unicode="&#xed;" d="M135 462L135 0L99 0L99 462L135 462M247 708L130 564L98 564L200 708L247 708Z"  horiz-adv-x="233" vert-adv-y="1000"  />

      
      <glyph glyph-name="uniee" unicode="&#xee;" d="M135 462L135 0L99 0L99 462L135 462M140 708L245 564L209 564L118 689L27 564L-9 564L96 708L140 708Z"  horiz-adv-x="233" vert-adv-y="1000"  />

      
      <glyph glyph-name="unief" unicode="&#xef;" d="M135 462L135 0L99 0L99 462L135 462M3 655Q3 668 12.50 678Q22 688 35 688Q48 688 57.50 678.50Q67 669 67 655Q67 641 57.50 631.50Q48 622 35 622Q22 622 12.50 631.50Q3 641 3 655M178 631.50Q178 631.50 173.50 636.25Q169 641 169 655Q169 669 178.50 678.50Q188 688 201 688Q214 688 223.50 678Q233 668 233 655Q233 641 223.50 631.50Q214 622 201 622Q187 622 178 631.50Z"  horiz-adv-x="233" vert-adv-y="1000"  />

      
      <glyph glyph-name="unif0" unicode="&#xf0;" d="M151 383.50Q151 383.50 123 353.25Q95 323 95 232Q95 141 151 79.50Q207 18 300 18Q393 18 449.50 79.50Q506 141 506 232Q506 323 449.50 383.50Q393 444 300 444Q207 444 151 383.50M446 723L342 666Q386 622 428.50 563Q471 504 507.50 414Q544 324 544 241Q544 133 478.50 60Q413-13 300-13Q194-13 126 56Q58 125 58 232Q58 339 126 407.50Q194 476 300 476Q401 476 471 405L476 407Q448 473 401 539.50Q354 606 309 648L197 588L178 609L288 669Q235 719 190 748L220 768Q261 740 319 686L423 743L446 723Z"  horiz-adv-x="607" vert-adv-y="1000"  />

      
      <glyph glyph-name="unif1" unicode="&#xf1;" d="M96 462L131 462Q135 412 135 354L137 354Q157 410 205 443Q253 476 310 476Q398 476 440 420.50Q482 365 482 281L482 0L446 0L446 271Q446 345 414 395Q382 445 307 445Q235 445 186 388Q137 331 137 233L137 0L100 0L100 350Q100 426 96 462M184 587L160 587Q165 624 182.50 646Q200 668 227 668Q253 668 294 644Q334 620 355 620Q390 620 398 669L423 669Q412 590 355 590Q329 590 289 614Q250 638 227 638Q194 638 184 587Z"  horiz-adv-x="575" vert-adv-y="1000"  />

      
      <glyph glyph-name="unif2" unicode="&#xf2;" d="M478.50 407.50Q478.50 407.50 512.75 373.25Q547 339 547 232Q547 125 478.50 56Q410-13 303-13Q197-13 128.50 56Q60 125 60 232Q60 339 128.50 407.50Q197 476 303 476Q410 476 478.50 407.50M452.50 79.50Q452.50 79.50 480.75 110.25Q509 141 509 232Q509 323 452.50 384Q396 445 303 445Q210 445 154 384Q98 323 98 232Q98 141 154 79.50Q210 18 303 18Q396 18 452.50 79.50M311 564L194 708L241 708L343 564L311 564Z"  horiz-adv-x="607" vert-adv-y="1000"  />

      
      <glyph glyph-name="unif3" unicode="&#xf3;" d="M478.50 407.50Q478.50 407.50 512.75 373.25Q547 339 547 232Q547 125 478.50 56Q410-13 303-13Q197-13 128.50 56Q60 125 60 232Q60 339 128.50 407.50Q197 476 303 476Q410 476 478.50 407.50M452.50 79.50Q452.50 79.50 480.75 110.25Q509 141 509 232Q509 323 452.50 384Q396 445 303 445Q210 445 154 384Q98 323 98 232Q98 141 154 79.50Q210 18 303 18Q396 18 452.50 79.50M415 708L298 564L266 564L368 708L415 708Z"  horiz-adv-x="607" vert-adv-y="1000"  />

      
      <glyph glyph-name="unif4" unicode="&#xf4;" d="M478.50 407.50Q478.50 407.50 512.75 373.25Q547 339 547 232Q547 125 478.50 56Q410-13 303-13Q197-13 128.50 56Q60 125 60 232Q60 339 128.50 407.50Q197 476 303 476Q410 476 478.50 407.50M452.50 79.50Q452.50 79.50 480.75 110.25Q509 141 509 232Q509 323 452.50 384Q396 445 303 445Q210 445 154 384Q98 323 98 232Q98 141 154 79.50Q210 18 303 18Q396 18 452.50 79.50M326 708L431 564L395 564L304 689L213 564L177 564L282 708L326 708Z"  horiz-adv-x="607" vert-adv-y="1000"  />

      
      <glyph glyph-name="unif5" unicode="&#xf5;" d="M478.50 407.50Q478.50 407.50 512.75 373.25Q547 339 547 232Q547 125 478.50 56Q410-13 303-13Q197-13 128.50 56Q60 125 60 232Q60 339 128.50 407.50Q197 476 303 476Q410 476 478.50 407.50M452.50 79.50Q452.50 79.50 480.75 110.25Q509 141 509 232Q509 323 452.50 384Q396 445 303 445Q210 445 154 384Q98 323 98 232Q98 141 154 79.50Q210 18 303 18Q396 18 452.50 79.50M197 587L173 587Q178 624 195.50 646Q213 668 240 668Q266 668 307 644Q347 620 368 620Q403 620 411 669L436 669Q425 590 368 590Q342 590 302 614Q263 638 240 638Q207 638 197 587Z"  horiz-adv-x="607" vert-adv-y="1000"  />

      
      <glyph glyph-name="unif6" unicode="&#xf6;" d="M478.50 407.50Q478.50 407.50 512.75 373.25Q547 339 547 232Q547 125 478.50 56Q410-13 303-13Q197-13 128.50 56Q60 125 60 232Q60 339 128.50 407.50Q197 476 303 476Q410 476 478.50 407.50M452.50 79.50Q452.50 79.50 480.75 110.25Q509 141 509 232Q509 323 452.50 384Q396 445 303 445Q210 445 154 384Q98 323 98 232Q98 141 154 79.50Q210 18 303 18Q396 18 452.50 79.50M190 655Q190 668 199.50 678Q209 688 222 688Q235 688 244.50 678.50Q254 669 254 655Q254 641 244.50 631.50Q235 622 222 622Q209 622 199.50 631.50Q190 641 190 655M365 631.50Q365 631.50 360.50 636.25Q356 641 356 655Q356 669 365.50 678.50Q375 688 388 688Q401 688 410.50 678Q420 668 420 655Q420 641 410.50 631.50Q401 622 388 622Q374 622 365 631.50Z"  horiz-adv-x="607" vert-adv-y="1000"  />

      
      <glyph glyph-name="unif7" unicode="&#xf7;" d="M578 319L578 287L89 287L89 319L578 319M375 468Q375 451 362.50 438.50Q350 426 333 426Q316 426 304 438.50Q292 451 292 468Q292 486 304 498.50Q316 511 333 511Q350 511 362.50 498.50Q375 486 375 468M375 138Q375 120 362.50 107.50Q350 95 333 95Q316 95 304 107.50Q292 120 292 138Q292 156 303.50 168Q315 180 333 180Q350 180 362.50 167.50Q375 155 375 138Z"  horiz-adv-x="666" vert-adv-y="1000"  />

      
      <glyph glyph-name="unif8" unicode="&#xf8;" d="M70-17L50 2L117 69Q60 136 60 232Q60 339 128 407.50Q196 476 303 476Q396 476 465 420L526 481L546 462L484 400Q547 334 547 232Q547 125 478.50 56Q410-13 303-13Q201-13 136 50L70-17M141 93L442 396Q387 446 303 446Q209 446 153 384.50Q97 323 97 232Q97 149 141 93M302 17Q396 17 453 78.50Q510 140 510 232Q510 320 460 376L159 73Q213 17 302 17Z"  horiz-adv-x="607" vert-adv-y="1000"  />

      
      <glyph glyph-name="unif9" unicode="&#xf9;" d="M478 0L442 0Q438 52 438 108L436 108Q416 52 367.50 19.50Q319-13 261-13Q173-13 132.50 42Q92 97 92 182L92 462L128 462L128 192Q128 118 159.50 67.50Q191 17 266 17Q339 17 388 75Q437 133 437 236L437 462L473 462L473 112Q473 47 478 0M283 564L166 708L213 708L315 564L283 564Z"  horiz-adv-x="575" vert-adv-y="1000"  />

      
      <glyph glyph-name="unifa" unicode="&#xfa;" d="M478 0L442 0Q438 52 438 108L436 108Q416 52 367.50 19.50Q319-13 261-13Q173-13 132.50 42Q92 97 92 182L92 462L128 462L128 192Q128 118 159.50 67.50Q191 17 266 17Q339 17 388 75Q437 133 437 236L437 462L473 462L473 112Q473 47 478 0M391 708L274 564L242 564L344 708L391 708Z"  horiz-adv-x="575" vert-adv-y="1000"  />

      
      <glyph glyph-name="unifb" unicode="&#xfb;" d="M478 0L442 0Q438 52 438 108L436 108Q416 52 367.50 19.50Q319-13 261-13Q173-13 132.50 42Q92 97 92 182L92 462L128 462L128 192Q128 118 159.50 67.50Q191 17 266 17Q339 17 388 75Q437 133 437 236L437 462L473 462L473 112Q473 47 478 0M304 708L409 564L373 564L282 689L191 564L155 564L260 708L304 708Z"  horiz-adv-x="575" vert-adv-y="1000"  />

      
      <glyph glyph-name="unifc" unicode="&#xfc;" d="M478 0L442 0Q438 52 438 108L436 108Q416 52 367.50 19.50Q319-13 261-13Q173-13 132.50 42Q92 97 92 182L92 462L128 462L128 192Q128 118 159.50 67.50Q191 17 266 17Q339 17 388 75Q437 133 437 236L437 462L473 462L473 112Q473 47 478 0M167 655Q167 668 176.50 678Q186 688 199 688Q212 688 221.50 678.50Q231 669 231 655Q231 641 221.50 631.50Q212 622 199 622Q186 622 176.50 631.50Q167 641 167 655M342 631.50Q342 631.50 337.50 636.25Q333 641 333 655Q333 669 342.50 678.50Q352 688 365 688Q378 688 387.50 678Q397 668 397 655Q397 641 387.50 631.50Q378 622 365 622Q351 622 342 631.50Z"  horiz-adv-x="575" vert-adv-y="1000"  />

      
      <glyph glyph-name="unifd" unicode="&#xfd;" d="M73-241Q46-241 26-235L32-202Q51-209 73-209Q109-209 130.50-185.50Q152-162 167-122L209-9L22 462L62 462L228 31L386 462L425 462L195-142Q157-241 73-241M347 708L230 564L198 564L300 708L347 708Z"  horiz-adv-x="447" vert-adv-y="1000"  />

      
      <glyph glyph-name="unife" unicode="&#xfe;" d="M334-13Q271-13 217 19Q163 51 137 110L135 110L135-240L99-240L99 756L135 756L135 351L137 351Q166 411 219 443.50Q272 476 334 476Q437 476 502.50 406.50Q568 337 568 231Q568 126 502 56.50Q436-13 334-13M476 79.50Q476 79.50 503.50 110.25Q531 141 531 231Q531 321 476 382.50Q421 444 332 444Q245 444 188.50 382.50Q132 321 132 231Q132 142 188.50 80Q245 18 332 18Q421 18 476 79.50Z"  horiz-adv-x="628" vert-adv-y="1000"  />

      
      <glyph glyph-name="uniff" unicode="&#xff;" d="M73-241Q46-241 26-235L32-202Q51-209 73-209Q109-209 130.50-185.50Q152-162 167-122L209-9L22 462L62 462L228 31L386 462L425 462L195-142Q157-241 73-241M113 655Q113 668 122.50 678Q132 688 145 688Q158 688 167.50 678.50Q177 669 177 655Q177 641 167.50 631.50Q158 622 145 622Q132 622 122.50 631.50Q113 641 113 655M288 631.50Q288 631.50 283.50 636.25Q279 641 279 655Q279 669 288.50 678.50Q298 688 311 688Q324 688 333.50 678Q343 668 343 655Q343 641 333.50 631.50Q324 622 311 622Q297 622 288 631.50Z"  horiz-adv-x="447" vert-adv-y="1000"  />

      
      <glyph glyph-name="uni0100" unicode="&#x0100;" d="M140 198L57 0L16 0L322 708L363 708L661 0L620 0L538 198L140 198M341 674L154 231L524 231L341 674M464 845L464 815L220 815L220 845L464 845Z"  horiz-adv-x="677" vert-adv-y="1000"  />

      
      <glyph glyph-name="uni0101" unicode="&#x0101;" d="M219-13Q157-13 110 21.50Q63 56 63 122Q63 275 327 275L393 275L393 305Q393 375 356 410Q319 445 252 445Q172 445 112 390L92 416Q158 476 254 476Q335 476 381.50 433.50Q428 391 428 307L428 104Q428 40 436 0L402 0Q395 44 395 99L392 99Q370 43 323.50 15Q277-13 219-13M225 17Q310 17 351.50 75.50Q393 134 393 219L393 246L337 246Q99 246 99 123Q99 69 137 43Q175 17 225 17M387 645L387 615L143 615L143 645L387 645Z"  horiz-adv-x="519" vert-adv-y="1000"  />

      
      <glyph glyph-name="uni0102" unicode="&#x0102;" d="M140 198L57 0L16 0L322 708L363 708L661 0L620 0L538 198L140 198M341 674L154 231L524 231L341 674M448 901L474 901Q466 840 430.50 806.50Q395 773 341 773Q287 773 251.50 806.50Q216 840 210 901L236 901Q245 854 273 829Q301 804 341 804Q428 804 448 901Z"  horiz-adv-x="677" vert-adv-y="1000"  />

      
      <glyph glyph-name="uni0103" unicode="&#x0103;" d="M219-13Q157-13 110 21.50Q63 56 63 122Q63 275 327 275L393 275L393 305Q393 375 356 410Q319 445 252 445Q172 445 112 390L92 416Q158 476 254 476Q335 476 381.50 433.50Q428 391 428 307L428 104Q428 40 436 0L402 0Q395 44 395 99L392 99Q370 43 323.50 15Q277-13 219-13M225 17Q310 17 351.50 75.50Q393 134 393 219L393 246L337 246Q99 246 99 123Q99 69 137 43Q175 17 225 17M372 701L398 701Q390 640 354.50 606.50Q319 573 265 573Q211 573 175.50 606.50Q140 640 134 701L160 701Q169 654 197 629Q225 604 265 604Q352 604 372 701Z"  horiz-adv-x="519" vert-adv-y="1000"  />

      
      <glyph glyph-name="uni0104" unicode="&#x0104;" d="M16 0L322 708L363 708L661 0Q652-8 631-26.50Q610-45 603-53Q563-102 563-135Q563-162 579.50-178Q596-194 623-194Q662-194 687-167L700-190Q664-223 615-223Q579-223 554-200.50Q529-178 529-141Q529-105 553-73Q577-41 620 0L538 198L140 198L57 0L16 0M341 674L154 231L524 231L341 674Z"  horiz-adv-x="677" vert-adv-y="1000"  />

      
      <glyph glyph-name="uni0105" unicode="&#x0105;" d="M219-13Q157-13 110 21.50Q63 56 63 122Q63 275 325 275L393 275L393 305Q393 375 356 410Q319 445 252 445Q172 445 112 390L92 416Q158 476 254 476Q335 476 381.50 433.50Q428 391 428 307L428 104Q428 40 436 0L433 0Q385-48 365-76.50Q345-105 345-135Q345-162 361.50-178Q378-194 405-194Q444-194 469-167L481-190Q446-223 397-223Q361-223 336-200.50Q311-178 311-141Q311-105 335-72Q359-39 402 0Q395 44 395 99L392 99Q370 43 323.50 15Q277-13 219-13M225 17Q269 17 303 33.50Q337 50 356 78Q375 106 384 138Q393 170 393 205L393 246L337 246Q99 246 99 123Q99 69 137 43Q175 17 225 17Z"  horiz-adv-x="519" vert-adv-y="1000"  />

      
      <glyph glyph-name="uni0106" unicode="&#x0106;" d="M659 117L687 95Q646 42 577.50 11.50Q509-19 431-19Q272-19 169.50 86.50Q67 192 67 354Q67 516 170 621.50Q273 727 431 727Q502 727 566 701.50Q630 676 670 630L643 605Q608 646 550 669.50Q492 693 431 693Q287 693 196.50 595Q106 497 106 354Q106 211 196 113Q286 15 431 15Q498 15 559.50 41Q621 67 659 117M534 908L417 764L385 764L487 908L534 908Z"  horiz-adv-x="723" vert-adv-y="1000"  />

      
      <glyph glyph-name="uni0107" unicode="&#x0107;" d="M454 410L429 387Q379 445 299 445Q209 445 153.50 383Q98 321 98 231Q98 141 153.50 80Q209 19 299 19Q379 19 436 73L458 51Q397-13 299-13Q194-13 127 55.50Q60 124 60 231Q60 337 127 406.50Q194 476 299 476Q396 476 454 410M410 708L293 564L261 564L363 708L410 708Z"  horiz-adv-x="486" vert-adv-y="1000"  />

      
      <glyph glyph-name="uni0108" unicode="&#x0108;" d="M659 117L687 95Q646 42 577.50 11.50Q509-19 431-19Q272-19 169.50 86.50Q67 192 67 354Q67 516 170 621.50Q273 727 431 727Q502 727 566 701.50Q630 676 670 630L643 605Q608 646 550 669.50Q492 693 431 693Q287 693 196.50 595Q106 497 106 354Q106 211 196 113Q286 15 431 15Q498 15 559.50 41Q621 67 659 117M452 908L557 764L521 764L430 889L339 764L303 764L408 908L452 908Z"  horiz-adv-x="723" vert-adv-y="1000"  />

      
      <glyph glyph-name="uni0109" unicode="&#x0109;" d="M454 410L429 387Q379 445 299 445Q209 445 153.50 383Q98 321 98 231Q98 141 153.50 80Q209 19 299 19Q379 19 436 73L458 51Q397-13 299-13Q194-13 127 55.50Q60 124 60 231Q60 337 127 406.50Q194 476 299 476Q396 476 454 410M320 708L425 564L389 564L298 689L207 564L171 564L276 708L320 708Z"  horiz-adv-x="486" vert-adv-y="1000"  />

      
      <glyph glyph-name="uni010A" unicode="&#x010A;" d="M659 117L687 95Q646 42 577.50 11.50Q509-19 431-19Q272-19 169.50 86.50Q67 192 67 354Q67 516 170 621.50Q273 727 431 727Q502 727 566 701.50Q630 676 670 630L643 605Q608 646 550 669.50Q492 693 431 693Q287 693 196.50 595Q106 497 106 354Q106 211 196 113Q286 15 431 15Q498 15 559.50 41Q621 67 659 117M458 856Q458 842 448.50 832.50Q439 823 427 823Q414 823 405 832.50Q396 842 396 856Q396 869 405.50 878.50Q415 888 427 888Q439 888 448.50 878.50Q458 869 458 856Z"  horiz-adv-x="723" vert-adv-y="1000"  />

      
      <glyph glyph-name="uni010B" unicode="&#x010B;" d="M454 410L429 387Q379 445 299 445Q209 445 153.50 383Q98 321 98 231Q98 141 153.50 80Q209 19 299 19Q379 19 436 73L458 51Q397-13 299-13Q194-13 127 55.50Q60 124 60 231Q60 337 127 406.50Q194 476 299 476Q396 476 454 410M325 656Q325 642 315.50 632.50Q306 623 294 623Q282 623 272.50 632.50Q263 642 263 656Q263 669 272.50 678.50Q282 688 294 688Q306 688 315.50 678.50Q325 669 325 656Z"  horiz-adv-x="486" vert-adv-y="1000"  />

      
      <glyph glyph-name="uni010C" unicode="&#x010C;" d="M659 117L687 95Q646 42 577.50 11.50Q509-19 431-19Q272-19 169.50 86.50Q67 192 67 354Q67 516 170 621.50Q273 727 431 727Q502 727 566 701.50Q630 676 670 630L643 605Q608 646 550 669.50Q492 693 431 693Q287 693 196.50 595Q106 497 106 354Q106 211 196 113Q286 15 431 15Q498 15 559.50 41Q621 67 659 117M557 908L452 764L408 764L303 908L339 908L430 783L521 908L557 908Z"  horiz-adv-x="723" vert-adv-y="1000"  />

      
      <glyph glyph-name="uni010D" unicode="&#x010D;" d="M454 410L429 387Q379 445 299 445Q209 445 153.50 383Q98 321 98 231Q98 141 153.50 80Q209 19 299 19Q379 19 436 73L458 51Q397-13 299-13Q194-13 127 55.50Q60 124 60 231Q60 337 127 406.50Q194 476 299 476Q396 476 454 410M423 708L318 564L274 564L169 708L205 708L296 583L387 708L423 708Z"  horiz-adv-x="486" vert-adv-y="1000"  />

      
      <glyph glyph-name="uni010E" unicode="&#x010E;" d="M102 0L102 708L314 708Q480 708 589.50 617.50Q699 527 699 354Q699 266 668 197Q637 128 583.50 85.50Q530 43 461.50 21.50Q393 0 314 0L102 0M140 674L140 34L304 34Q465 34 562.50 118Q660 202 660 354Q660 506 562.50 590Q465 674 304 674L140 674M480 908L375 764L331 764L226 908L262 908L353 783L444 908L480 908Z"  horiz-adv-x="766" vert-adv-y="1000"  />

      
      <glyph glyph-name="uni010F" unicode="&#x010F;" d="M492 110Q463 51 409.50 19Q356-13 294-13Q191-13 125.50 56.50Q60 126 60 231Q60 336 126 406Q192 476 294 476Q356 476 409.50 443.50Q463 411 492 351L494 351L494 756L530 756L530 0L494 0L494 110L492 110M152.50 383Q152.50 383 125.25 352Q98 321 98 231Q98 141 152 79.50Q206 18 296 18Q381 18 438 80Q495 142 495 231Q495 320 438 382.50Q381 445 296 445Q207 445 152.50 383M684 708L620 523L591 523L646 708L684 708Z"  horiz-adv-x="660" vert-adv-y="1000"  />

      
      <glyph glyph-name="uni0110" unicode="&#x0110;" d="M100 0L100 355L22 355L22 385L100 385L100 708L311 708Q477 708 586.50 617.50Q696 527 696 354Q696 266 665 197Q634 128 580.50 85.50Q527 43 458.50 21.50Q390 0 311 0L100 0M138 355L138 34L301 34Q463 34 559.50 118Q656 202 656 354Q656 506 559.50 590Q463 674 301 674L138 674L138 385L403 385L403 355L138 355Z"  horiz-adv-x="766" vert-adv-y="1000"  />

      
      <glyph glyph-name="uni0111" unicode="&#x0111;" d="M299 598L494 598L494 756L530 756L530 598L596 598L596 570L530 570L530 0L494 0L494 110L492 110Q463 51 409.50 19Q356-13 294-13Q191-13 125.50 56.50Q60 126 60 231Q60 336 126 406Q192 476 294 476Q356 476 409.50 443.50Q463 411 492 351L494 351L494 570L299 570L299 598M152.50 383Q152.50 383 125.25 352Q98 321 98 231Q98 141 152 79.50Q206 18 296 18Q383 18 440 80Q497 142 497 231Q497 321 440 383Q383 445 296 445Q207 445 152.50 383Z"  horiz-adv-x="629" vert-adv-y="1000"  />

      
      <glyph glyph-name="uni0112" unicode="&#x0112;" d="M139 351L139 34L537 34L537 0L102 0L102 708L523 708L523 674L139 674L139 384L499 384L499 351L139 351M438 845L438 815L194 815L194 845L438 845Z"  horiz-adv-x="591" vert-adv-y="1000"  />

      
      <glyph glyph-name="uni0113" unicode="&#x0113;" d="M98 259L465 259Q463 342 413.50 393.50Q364 445 284 445Q226 445 182 412.50Q138 380 118.50 339Q99 298 98 259M293-13Q191-13 125.50 57Q60 127 60 235Q60 339 124.50 407.50Q189 476 284 476Q387 476 444 410Q501 344 501 251Q501 248 500.50 240Q500 232 500 229L97 229Q98 144 150.50 81Q203 18 293 18Q391 18 458 100L483 79Q411-13 293-13M411 645L411 615L167 615L167 645L411 645Z"  horiz-adv-x="561" vert-adv-y="1000"  />

      
      <glyph glyph-name="uni0114" unicode="&#x0114;" d="M139 351L139 34L537 34L537 0L102 0L102 708L523 708L523 674L139 674L139 384L499 384L499 351L139 351M422 901L448 901Q440 840 404.50 806.50Q369 773 315 773Q261 773 225.50 806.50Q190 840 184 901L210 901Q219 854 247 829Q275 804 315 804Q402 804 422 901Z"  horiz-adv-x="591" vert-adv-y="1000"  />

      
      <glyph glyph-name="uni0115" unicode="&#x0115;" d="M98 259L465 259Q463 342 413.50 393.50Q364 445 284 445Q226 445 182 412.50Q138 380 118.50 339Q99 298 98 259M293-13Q191-13 125.50 57Q60 127 60 235Q60 339 124.50 407.50Q189 476 284 476Q387 476 444 410Q501 344 501 251Q501 248 500.50 240Q500 232 500 229L97 229Q98 144 150.50 81Q203 18 293 18Q391 18 458 100L483 79Q411-13 293-13M396 701L422 701Q414 640 378.50 606.50Q343 573 289 573Q235 573 199.50 606.50Q164 640 158 701L184 701Q193 654 221 629Q249 604 289 604Q376 604 396 701Z"  horiz-adv-x="561" vert-adv-y="1000"  />

      
      <glyph glyph-name="uni0116" unicode="&#x0116;" d="M139 351L139 34L537 34L537 0L102 0L102 708L523 708L523 674L139 674L139 384L499 384L499 351L139 351M348 856Q348 842 338.50 832.50Q329 823 317 823Q304 823 295 832.50Q286 842 286 856Q286 869 295.50 878.50Q305 888 317 888Q329 888 338.50 878.50Q348 869 348 856Z"  horiz-adv-x="591" vert-adv-y="1000"  />

      
      <glyph glyph-name="uni0117" unicode="&#x0117;" d="M98 259L465 259Q463 342 413.50 393.50Q364 445 284 445Q226 445 182 412.50Q138 380 118.50 339Q99 298 98 259M293-13Q191-13 125.50 57Q60 127 60 235Q60 339 124.50 407.50Q189 476 284 476Q387 476 444 410Q501 344 501 251Q501 248 500.50 240Q500 232 500 229L97 229Q98 144 150.50 81Q203 18 293 18Q391 18 458 100L483 79Q411-13 293-13M320 656Q320 642 310.50 632.50Q301 623 289 623Q276 623 267 632.50Q258 642 258 656Q258 669 267.50 678.50Q277 688 289 688Q301 688 310.50 678.50Q320 669 320 656Z"  horiz-adv-x="561" vert-adv-y="1000"  />

      
      <glyph glyph-name="uni0118" unicode="&#x0118;" d="M559-167L571-190Q536-223 487-223Q451-223 426-200.50Q401-178 401-141Q401-105 425-72Q449-39 492 0L102 0L102 708L523 708L523 674L139 674L139 384L499 384L499 351L139 351L139 34L537 34L537 0L523 0Q475-47 455-76Q435-105 435-135Q435-162 451.50-178Q468-194 495-194Q532-194 559-167Z"  horiz-adv-x="591" vert-adv-y="1000"  />

      
      <glyph glyph-name="uni0119" unicode="&#x0119;" d="M317-223Q281-223 256-200.50Q231-178 231-141Q231-84 308-13L285-13Q186-10 123 59.50Q60 129 60 235Q60 339 124.50 407.50Q189 476 284 476Q387 476 444 410.50Q501 345 501 252Q501 233 500 229L97 229Q98 144 150.50 81Q203 18 293 18Q396 18 456 101L483 79Q428 7 344-8Q301-51 282.50-78.50Q264-106 264-135Q264-162 281-178Q298-194 325-194Q363-194 388-167L401-190Q365-223 317-223M98 259L465 259Q463 342 413.50 393.50Q364 445 284 445Q226 445 182 412.50Q138 380 118.50 339Q99 298 98 259Z"  horiz-adv-x="561" vert-adv-y="1000"  />

      
      <glyph glyph-name="uni011A" unicode="&#x011A;" d="M139 351L139 34L537 34L537 0L102 0L102 708L523 708L523 674L139 674L139 384L499 384L499 351L139 351M443 908L338 764L294 764L189 908L225 908L316 783L407 908L443 908Z"  horiz-adv-x="591" vert-adv-y="1000"  />

      
      <glyph glyph-name="uni011B" unicode="&#x011B;" d="M98 259L465 259Q463 342 413.50 393.50Q364 445 284 445Q226 445 182 412.50Q138 380 118.50 339Q99 298 98 259M293-13Q191-13 125.50 57Q60 127 60 235Q60 339 124.50 407.50Q189 476 284 476Q387 476 444 410Q501 344 501 251Q501 248 500.50 240Q500 232 500 229L97 229Q98 144 150.50 81Q203 18 293 18Q391 18 458 100L483 79Q411-13 293-13M415 708L310 564L266 564L161 708L197 708L288 583L379 708L415 708Z"  horiz-adv-x="561" vert-adv-y="1000"  />

      
      <glyph glyph-name="uni011C" unicode="&#x011C;" d="M678 641L653 615Q615 652 556 673Q497 694 436 694Q289 694 197.50 596Q106 498 106 355Q106 211 197 112.50Q288 14 441 14Q563 14 659 63L659 324L481 324L481 356L696 356L696 44Q588-19 439-19Q274-19 170.50 87Q67 193 67 355Q67 517 170.50 622Q274 727 436 727Q581 727 678 641M456 908L561 764L525 764L434 889L343 764L307 764L412 908L456 908Z"  horiz-adv-x="790" vert-adv-y="1000"  />

      
      <glyph glyph-name="uni011D" unicode="&#x011D;" d="M85-158L109-134Q187-215 296-215Q402-215 448-149.50Q494-84 494 21L494 114L492 114Q466 56 411.50 23Q357-10 294-10Q191-10 125.50 58.50Q60 127 60 232Q60 336 126 406Q192 476 294 476Q356 476 409.50 443Q463 410 492 351L494 351L494 462L530 462L530 19Q530-34 518.50-79Q507-124 481.50-163Q456-202 408-224.50Q360-247 295-247Q166-247 85-158M98 232Q98 144 152.50 82.50Q207 21 296 21Q382 21 438.50 82.50Q495 144 495 233Q495 321 438 383Q381 445 296 445Q207 445 152.50 383Q98 321 98 232M329 708L434 564L398 564L307 689L216 564L180 564L285 708L329 708Z"  horiz-adv-x="628" vert-adv-y="1000"  />

      
      <glyph glyph-name="uni011E" unicode="&#x011E;" d="M678 641L653 615Q615 652 556 673Q497 694 436 694Q289 694 197.50 596Q106 498 106 355Q106 211 197 112.50Q288 14 441 14Q563 14 659 63L659 324L481 324L481 356L696 356L696 44Q588-19 439-19Q274-19 170.50 87Q67 193 67 355Q67 517 170.50 622Q274 727 436 727Q581 727 678 641M540 901L566 901Q558 840 522.50 806.50Q487 773 433 773Q379 773 343.50 806.50Q308 840 302 901L328 901Q337 854 365 829Q393 804 433 804Q520 804 540 901Z"  horiz-adv-x="790" vert-adv-y="1000"  />

      
      <glyph glyph-name="uni011F" unicode="&#x011F;" d="M85-158L109-134Q187-215 296-215Q402-215 448-149.50Q494-84 494 21L494 114L492 114Q466 56 411.50 23Q357-10 294-10Q191-10 125.50 58.50Q60 127 60 232Q60 336 126 406Q192 476 294 476Q356 476 409.50 443Q463 410 492 351L494 351L494 462L530 462L530 19Q530-34 518.50-79Q507-124 481.50-163Q456-202 408-224.50Q360-247 295-247Q166-247 85-158M98 232Q98 144 152.50 82.50Q207 21 296 21Q382 21 438.50 82.50Q495 144 495 233Q495 321 438 383Q381 445 296 445Q207 445 152.50 383Q98 321 98 232M413 701L439 701Q431 640 395.50 606.50Q360 573 306 573Q252 573 216.50 606.50Q181 640 175 701L201 701Q210 654 238 629Q266 604 306 604Q393 604 413 701Z"  horiz-adv-x="628" vert-adv-y="1000"  />

      
      <glyph glyph-name="uni0120" unicode="&#x0120;" d="M678 641L653 615Q615 652 556 673Q497 694 436 694Q289 694 197.50 596Q106 498 106 355Q106 211 197 112.50Q288 14 441 14Q563 14 659 63L659 324L481 324L481 356L696 356L696 44Q588-19 439-19Q274-19 170.50 87Q67 193 67 355Q67 517 170.50 622Q274 727 436 727Q581 727 678 641M462 856Q462 842 452.50 832.50Q443 823 431 823Q418 823 409 832.50Q400 842 400 856Q400 869 409.50 878.50Q419 888 431 888Q443 888 452.50 878.50Q462 869 462 856Z"  horiz-adv-x="790" vert-adv-y="1000"  />

      
      <glyph glyph-name="uni0121" unicode="&#x0121;" d="M85-158L109-134Q187-215 296-215Q402-215 448-149.50Q494-84 494 21L494 114L492 114Q466 56 411.50 23Q357-10 294-10Q191-10 125.50 58.50Q60 127 60 232Q60 336 126 406Q192 476 294 476Q356 476 409.50 443Q463 410 492 351L494 351L494 462L530 462L530 19Q530-34 518.50-79Q507-124 481.50-163Q456-202 408-224.50Q360-247 295-247Q166-247 85-158M98 232Q98 144 152.50 82.50Q207 21 296 21Q382 21 438.50 82.50Q495 144 495 233Q495 321 438 383Q381 445 296 445Q207 445 152.50 383Q98 321 98 232M336 656Q336 642 326.50 632.50Q317 623 305 623Q292 623 283 632.50Q274 642 274 656Q274 669 283.50 678.50Q293 688 305 688Q317 688 326.50 678.50Q336 669 336 656Z"  horiz-adv-x="628" vert-adv-y="1000"  />

      
      <glyph glyph-name="uni0122" unicode="&#x0122;" d="M678 641L653 615Q615 652 556 673Q497 694 436 694Q289 694 197.50 596Q106 498 106 355Q106 211 197 112.50Q288 14 441 14Q563 14 659 63L659 324L481 324L481 356L696 356L696 44Q588-19 439-19Q274-19 170.50 87Q67 193 67 355Q67 517 170.50 622Q274 727 436 727Q581 727 678 641M466-43L402-228L373-228L427-43L466-43Z"  horiz-adv-x="791" vert-adv-y="1000"  />

      
      <glyph glyph-name="uni0123" unicode="&#x0123;" d="M85-158L109-134Q187-215 296-215Q402-215 448-149.50Q494-84 494 21L494 114L492 114Q466 56 411.50 23Q357-10 294-10Q191-10 125.50 58.50Q60 127 60 232Q60 336 126 406Q192 476 294 476Q356 476 409.50 443Q463 410 492 351L494 351L494 462L530 462L530 19Q530-34 518.50-79Q507-124 481.50-163Q456-202 408-224.50Q360-247 295-247Q166-247 85-158M98 232Q98 144 152.50 82.50Q207 21 296 21Q382 21 438.50 82.50Q495 144 495 233Q495 321 438 383Q381 445 296 445Q207 445 152.50 383Q98 321 98 232M278 564L341 749L371 749L316 564L278 564Z"  horiz-adv-x="628" vert-adv-y="1000"  />

      
      <glyph glyph-name="uni0124" unicode="&#x0124;" d="M102 0L102 708L140 708L140 384L588 384L588 708L625 708L625 0L588 0L588 350L140 350L140 0L102 0M386 908L491 764L455 764L364 889L273 764L237 764L342 908L386 908Z"  horiz-adv-x="728" vert-adv-y="1000"  />

      
      <glyph glyph-name="uni0125" unicode="&#x0125;" d="M135 355L137 355Q157 411 205 443.50Q253 476 311 476Q399 476 439.50 421Q480 366 480 281L480 0L444 0L444 271Q444 305 437.50 333.50Q431 362 416.50 388.50Q402 415 373.50 430Q345 445 305 445Q232 445 183.50 386Q135 327 135 219L135 0L99 0L99 756L135 756L135 355M307 940L412 796L376 796L285 921L194 796L158 796L263 940L307 940Z"  horiz-adv-x="573" vert-adv-y="1000"  />

      
      <glyph glyph-name="uni0126" unicode="&#x0126;" d="M102 0L102 708L140 708L140 528L588 528L588 708L625 708L625 0L588 0L588 350L140 350L140 0L102 0M140 384L588 384L588 500L140 500L140 384Z"  horiz-adv-x="728" vert-adv-y="1000"  />

      
      <glyph glyph-name="uni0127" unicode="&#x0127;" d="M32 598L99 598L99 756L135 756L135 598L330 598L330 570L135 570L135 355L137 355Q157 411 205 443.50Q253 476 311 476Q399 476 439.50 421Q480 366 480 281L480 0L444 0L444 271Q444 305 437.50 333.50Q431 362 416.50 388.50Q402 415 373.50 430Q345 445 305 445Q233 445 184 388Q135 331 135 233L135 0L99 0L99 570L32 570L32 598Z"  horiz-adv-x="573" vert-adv-y="1000"  />

      
      <glyph glyph-name="uni0128" unicode="&#x0128;" d="M140 708L140 0L102 0L102 708L140 708M15 787L-9 787Q-4 824 13.50 846Q31 868 58 868Q85 868 125 844Q165 820 186 820Q221 820 229 869L254 869Q243 790 186 790Q160 790 120 814Q81 838 58 838Q25 838 15 787Z"  horiz-adv-x="242" vert-adv-y="1000"  />

      
      <glyph glyph-name="uni0129" unicode="&#x0129;" d="M135 462L135 0L99 0L99 462L135 462M11 587L-13 587Q-8 624 9.50 646Q27 668 54 668Q80 668 121 644Q161 620 182 620Q217 620 225 669L250 669Q239 590 182 590Q156 590 116 614Q77 638 54 638Q21 638 11 587Z"  horiz-adv-x="233" vert-adv-y="1000"  />

      
      <glyph glyph-name="uni012A" unicode="&#x012A;" d="M140 708L140 0L102 0L102 708L140 708M244 845L244 815L0 815L0 845L244 845Z"  horiz-adv-x="242" vert-adv-y="1000"  />

      
      <glyph glyph-name="uni012B" unicode="&#x012B;" d="M135 462L135 0L99 0L99 462L135 462M240 645L240 615L-4 615L-4 645L240 645Z"  horiz-adv-x="233" vert-adv-y="1000"  />

      
      <glyph glyph-name="uni012C" unicode="&#x012C;" d="M140 708L140 0L102 0L102 708L140 708M227 901L253 901Q245 840 209.50 806.50Q174 773 120 773Q66 773 30.50 806.50Q-5 840-11 901L15 901Q24 854 52 829Q80 804 120 804Q207 804 227 901Z"  horiz-adv-x="242" vert-adv-y="1000"  />

      
      <glyph glyph-name="uni012D" unicode="&#x012D;" d="M135 462L135 0L99 0L99 462L135 462M223 701L249 701Q241 640 205.50 606.50Q170 573 116 573Q62 573 26.50 606.50Q-9 640-15 701L11 701Q20 654 48 629Q76 604 116 604Q203 604 223 701Z"  horiz-adv-x="233" vert-adv-y="1000"  />

      
      <glyph glyph-name="uni012E" unicode="&#x012E;" d="M102-223Q66-223 41-200.50Q16-178 16-141Q16-105 40-72Q64-39 107 0L102 0L102 708L140 708L140 0Q90-50 70-78.50Q50-107 50-135Q50-162 66.50-178Q83-194 110-194Q149-194 174-167L186-190Q151-223 102-223Z"  horiz-adv-x="242" vert-adv-y="1000"  />

      
      <glyph glyph-name="uni012F" unicode="&#x012F;" d="M98-223Q62-223 37-200.50Q12-178 12-141Q12-106 36-73Q60-40 103 0L99 0L99 462L135 462L134 0Q86-48 66-76.50Q46-105 46-135Q46-162 63-178Q80-194 107-194Q145-194 170-167L183-190Q147-223 98-223M117 623Q104 623 95 632.50Q86 642 86 656Q86 669 95.50 678.50Q105 688 117 688Q129 688 138 678.50Q147 669 147 656Q147 642 138 632.50Q129 623 117 623Z"  horiz-adv-x="233" vert-adv-y="1000"  />

      
      <glyph glyph-name="uni0130" unicode="&#x0130;" d="M140 708L140 0L102 0L102 708L140 708M153 856Q153 842 143.50 832.50Q134 823 122 823Q110 823 100.50 832.50Q91 842 91 856Q91 869 100.50 878.50Q110 888 122 888Q134 888 143.50 878.50Q153 869 153 856Z"  horiz-adv-x="242" vert-adv-y="1000"  />

      
      <glyph glyph-name="uni0131" unicode="&#x0131;" d="M135 462L135 0L99 0L99 462L135 462Z"  horiz-adv-x="233" vert-adv-y="1000"  />

      
      <glyph glyph-name="uni0132" unicode="&#x0132;" d="M140 708L140 0L102 0L102 708L140 708M259 103L293 115Q310 70 346.50 42.50Q383 15 432 15Q509 15 544.50 65.50Q580 116 580 200L580 708L618 708L618 196Q618 101 572.50 41.50Q527-18 434-18Q369-18 322.50 16Q276 50 259 103Z"  horiz-adv-x="715" vert-adv-y="1000"  />

      
      <glyph glyph-name="uni0133" unicode="&#x0133;" d="M214-236L220-206Q242-210 251-210Q278-210 295.50-201Q313-192 320.50-173.50Q328-155 330.50-137.50Q333-120 333-94L333 462L370 462L370-96Q370-168 344.50-204.50Q319-241 251-241Q232-241 214-236M99 0L99 462L135 462L135 0L99 0M117 623Q104 623 95 632.50Q86 642 86 656Q86 669 95.50 678.50Q105 688 117 688Q129 688 138 678.50Q147 669 147 656Q147 642 138 632.50Q129 623 117 623M373 632.50Q373 632.50 368.50 627.75Q364 623 352 623Q340 623 330.50 632.50Q321 642 321 656Q321 669 330.50 678.50Q340 688 352 688Q364 688 373 678.50Q382 669 382 656Q382 642 373 632.50Z"  horiz-adv-x="468" vert-adv-y="1000"  />

      
      <glyph glyph-name="uni0134" unicode="&#x0134;" d="M28 103L62 115Q78 70 115 42.50Q152 15 200 15Q277 15 313 65.50Q349 116 349 200L349 708L386 708L386 196Q386 101 340.50 41.50Q295-18 203-18Q138-18 91 16Q44 50 28 103M388 908L493 764L457 764L366 889L275 764L239 764L344 908L388 908Z"  horiz-adv-x="484" vert-adv-y="1000"  />

      
      <glyph glyph-name="uni0135" unicode="&#x0135;" d="M-20-236L-14-206Q6-210 16-210Q38-210 54-203Q70-196 78.50-186.50Q87-177 92-160Q97-143 98-129Q99-115 99-94L99 462L135 462L135-96Q135-168 109.50-204.50Q84-241 17-241Q-2-241-20-236M138 708L243 564L207 564L116 689L25 564L-11 564L94 708L138 708Z"  horiz-adv-x="234" vert-adv-y="1000"  />

      
      <glyph glyph-name="uni0136" unicode="&#x0136;" d="M140 708L140 385L491 708L545 708L186 384L563 0L509 0L140 380L140 0L102 0L102 708L140 708M343-45L280-230L250-230L305-45L343-45Z"  horiz-adv-x="584" vert-adv-y="1000"  />

      
      <glyph glyph-name="uni0137" unicode="&#x0137;" d="M135 756L135 251L137 251L368 462L420 462L179 249L446 0L393 0L137 244L135 244L135 0L99 0L99 756L135 756M286-44L222-229L193-229L247-44L286-44Z"  horiz-adv-x="465" vert-adv-y="1000"  />

      
      <glyph glyph-name="uni0138" unicode="&#x0138;" d="M135 462L135 251L137 251L368 462L420 462L179 249L446 0L393 0L137 244L135 244L135 0L99 0L99 462L135 462Z"  horiz-adv-x="465" vert-adv-y="1000"  />

      
      <glyph glyph-name="uni0139" unicode="&#x0139;" d="M140 708L140 34L485 34L485 0L102 0L102 708L140 708M253 908L136 764L104 764L206 908L253 908Z"  horiz-adv-x="502" vert-adv-y="1000"  />

      
      <glyph glyph-name="uni013A" unicode="&#x013A;" d="M135 756L135 0L99 0L99 756L135 756M249 936L132 792L100 792L202 936L249 936Z"  horiz-adv-x="234" vert-adv-y="1000"  />

      
      <glyph glyph-name="uni013B" unicode="&#x013B;" d="M140 708L140 34L485 34L485 0L102 0L102 708L140 708M320-45L256-230L227-230L282-45L320-45Z"  horiz-adv-x="502" vert-adv-y="1000"  />

      
      <glyph glyph-name="uni013C" unicode="&#x013C;" d="M135 756L135 0L99 0L99 756L135 756M152-45L88-230L59-230L113-45L152-45Z"  horiz-adv-x="234" vert-adv-y="1000"  />

      
      <glyph glyph-name="uni013D" unicode="&#x013D;" d="M140 708L140 34L485 34L485 0L102 0L102 708L140 708M312 708L249 523L220 523L274 708L312 708Z"  horiz-adv-x="502" vert-adv-y="1000"  />

      
      <glyph glyph-name="uni013E" unicode="&#x013E;" d="M135 756L135 0L99 0L99 756L135 756M284 708L220 523L191 523L246 708L284 708Z"  horiz-adv-x="260" vert-adv-y="1000"  />

      
      <glyph glyph-name="uni013F" unicode="&#x013F;" d="M140 708L140 34L485 34L485 0L102 0L102 708L140 708M327 436Q327 422 317.50 412.50Q308 403 296 403Q284 403 274.50 412.50Q265 422 265 436Q265 449 274.50 458.50Q284 468 296 468Q308 468 317.50 458.50Q327 449 327 436Z"  horiz-adv-x="502" vert-adv-y="1000"  />

      
      <glyph glyph-name="uni0140" unicode="&#x0140;" d="M135 756L135 0L99 0L99 756L135 756M258 466Q258 452 248.50 442.50Q239 433 227 433Q214 433 205 442.50Q196 452 196 466Q196 479 205.50 488.50Q215 498 227 498Q239 498 248.50 488.50Q258 479 258 466Z"  horiz-adv-x="264" vert-adv-y="1000"  />

      
      <glyph glyph-name="uni0141" unicode="&#x0141;" d="M140 708L140 321L350 507L350 468L140 280L140 34L485 34L485 0L102 0L102 253L32 190L32 230L102 293L102 708L140 708Z"  horiz-adv-x="502" vert-adv-y="1000"  />

      
      <glyph glyph-name="uni0142" unicode="&#x0142;" d="M137 756L137 422L213 492L213 452L137 381L137 0L102 0L102 352L32 285L32 327L102 393L102 756L137 756Z"  horiz-adv-x="234" vert-adv-y="1000"  />

      
      <glyph glyph-name="uni0143" unicode="&#x0143;" d="M152 708L631 52L633 52L633 708L671 708L671 0L621 0L142 658L140 658L140 0L102 0L102 708L152 708M509 908L392 764L360 764L462 908L509 908Z"  horiz-adv-x="773" vert-adv-y="1000"  />

      
      <glyph glyph-name="uni0144" unicode="&#x0144;" d="M96 462L131 462Q135 412 135 354L137 354Q157 410 205 443Q253 476 310 476Q398 476 440 420.50Q482 365 482 281L482 0L446 0L446 271Q446 345 414 395Q382 445 307 445Q235 445 186 388Q137 331 137 233L137 0L100 0L100 350Q100 426 96 462M409 708L292 564L260 564L362 708L409 708Z"  horiz-adv-x="575" vert-adv-y="1000"  />

      
      <glyph glyph-name="uni0145" unicode="&#x0145;" d="M152 708L631 52L633 52L633 708L671 708L671 0L621 0L142 658L140 658L140 0L102 0L102 708L152 708M409-45L346-230L316-230L371-45L409-45Z"  horiz-adv-x="773" vert-adv-y="1000"  />

      
      <glyph glyph-name="uni0146" unicode="&#x0146;" d="M96 462L131 462Q135 412 135 354L137 354Q157 410 205 443Q253 476 310 476Q398 476 440 420.50Q482 365 482 281L482 0L446 0L446 271Q446 345 414 395Q382 445 307 445Q235 445 186 388Q137 331 137 233L137 0L100 0L100 350Q100 426 96 462M322-46L258-231L229-231L283-46L322-46Z"  horiz-adv-x="575" vert-adv-y="1000"  />

      
      <glyph glyph-name="uni0147" unicode="&#x0147;" d="M152 708L631 52L633 52L633 708L671 708L671 0L621 0L142 658L140 658L140 0L102 0L102 708L152 708M514 908L409 764L365 764L260 908L296 908L387 783L478 908L514 908Z"  horiz-adv-x="773" vert-adv-y="1000"  />

      
      <glyph glyph-name="uni0148" unicode="&#x0148;" d="M96 462L131 462Q135 412 135 354L137 354Q157 410 205 443Q253 476 310 476Q398 476 440 420.50Q482 365 482 281L482 0L446 0L446 271Q446 345 414 395Q382 445 307 445Q235 445 186 388Q137 331 137 233L137 0L100 0L100 350Q100 426 96 462M420 708L315 564L271 564L166 708L202 708L293 583L384 708L420 708Z"  horiz-adv-x="575" vert-adv-y="1000"  />

      
      <glyph glyph-name="uni0149" unicode="&#x0149;" d="M96 462L131 462Q135 412 135 354L137 354Q157 410 205 443Q253 476 310 476Q398 476 440 420.50Q482 365 482 281L482 0L446 0L446 271Q446 345 414 395Q382 445 307 445Q235 445 186 388Q137 331 137 233L137 0L100 0L100 350Q100 426 96 462M125 723L61 538L32 538L87 723L125 723Z"  horiz-adv-x="575" vert-adv-y="1000"  />

      
      <glyph glyph-name="uni014A" unicode="&#x014A;" d="M102 0L102 708L152 708L631 60L633 60L633 708L671 708L671-96Q671-168 645.50-204.50Q620-241 552-241Q533-241 515-236L521-206Q543-210 552-210Q579-210 596.50-201Q614-192 621.50-173.50Q629-155 631.50-137.50Q634-120 634-94L634-10L142 658L140 658L140 0L102 0Z"  horiz-adv-x="773" vert-adv-y="1000"  />

      
      <glyph glyph-name="uni014B" unicode="&#x014B;" d="M327-236L333-206Q353-210 363-210Q399-210 418-192Q437-174 441.50-152Q446-130 446-94L446 271Q446 345 414 395Q382 445 307 445Q235 445 186 388Q137 331 137 233L137 0L100 0L100 350Q100 426 96 462L131 462Q135 412 135 354L137 354Q157 410 205.50 443Q254 476 312 476Q400 476 441 421Q482 366 482 281L482-96Q482-168 456.50-204.50Q431-241 363-241Q344-241 327-236Z"  horiz-adv-x="575" vert-adv-y="1000"  />

      
      </font>
</defs>
</svg>
