<svg width="21" height="16" viewBox="0 0 21 16" fill="none" xmlns="http://www.w3.org/2000/svg">
<mask id="path-1-outside-1_249_20" maskUnits="userSpaceOnUse" x="-1" y="-1" width="23" height="18" fill="black">
<rect fill="white" x="-1" y="-1" width="23" height="18"/>
<path d="M0.0257458 8.15625L1.64506 6.49432L7.27006 12.0341L18.9036 0.443181L20.5655 2.10511L7.27006 15.358L0.0257458 8.15625Z"/>
</mask>
<path d="M0.0257458 8.15625L1.64506 6.49432L7.27006 12.0341L18.9036 0.443181L20.5655 2.10511L7.27006 15.358L0.0257458 8.15625Z" fill="#BABDE2"/>
<path d="M0.0257458 8.15625L-0.332369 7.80732L-0.677817 8.16186L-0.326763 8.51084L0.0257458 8.15625ZM1.64506 6.49432L1.99591 6.13808L1.63775 5.78535L1.28695 6.14539L1.64506 6.49432ZM7.27006 12.0341L6.91922 12.3903L7.27211 12.7379L7.62297 12.3883L7.27006 12.0341ZM18.9036 0.443181L19.2571 0.0896273L18.9042 -0.263278L18.5507 0.0889792L18.9036 0.443181ZM20.5655 2.10511L20.9185 2.45923L21.2732 2.10568L20.9191 1.75156L20.5655 2.10511ZM7.27006 15.358L6.91756 15.7125L7.27054 16.0635L7.62305 15.7121L7.27006 15.358ZM0.383861 8.50518L2.00318 6.84325L1.28695 6.14539L-0.332369 7.80732L0.383861 8.50518ZM1.29422 6.85056L6.91922 12.3903L7.62091 11.6778L1.99591 6.13808L1.29422 6.85056ZM7.62297 12.3883L19.2565 0.797382L18.5507 0.0889792L6.91716 11.6799L7.62297 12.3883ZM18.55 0.796734L20.212 2.45867L20.9191 1.75156L19.2571 0.0896273L18.55 0.796734ZM20.2125 1.75099L6.91708 15.0038L7.62305 15.7121L20.9185 2.45923L20.2125 1.75099ZM7.62257 15.0034L0.378255 7.80166L-0.326763 8.51084L6.91756 15.7125L7.62257 15.0034Z" fill="#BABDE2" mask="url(#path-1-outside-1_249_20)"/>
</svg>
