<svg width="15" height="15" viewBox="0 0 15 15" fill="none" xmlns="http://www.w3.org/2000/svg">
<mask id="path-1-outside-1_4_106" maskUnits="userSpaceOnUse" x="-1" y="-1" width="17" height="17" fill="black">
<rect fill="white" x="-1" y="-1" width="17" height="17"/>
<path d="M6.30549 14.5085V0.446022H8.69185V14.5085H6.30549ZM0.467419 8.67045V6.28409H14.5299V8.67045H0.467419Z"/>
</mask>
<path d="M6.30549 14.5085V0.446022H8.69185V14.5085H6.30549ZM0.467419 8.67045V6.28409H14.5299V8.67045H0.467419Z" fill="#BABDE2"/>
<path d="M6.30549 14.5085H5.80549V15.0085H6.30549V14.5085ZM6.30549 0.446022V-0.053978H5.80549V0.446022H6.30549ZM8.69185 0.446022H9.19185V-0.053978H8.69185V0.446022ZM8.69185 14.5085V15.0085H9.19185V14.5085H8.69185ZM0.467419 8.67045H-0.0325813V9.17045H0.467419V8.67045ZM0.467419 6.28409V5.78409H-0.0325813V6.28409H0.467419ZM14.5299 6.28409H15.0299V5.78409H14.5299V6.28409ZM14.5299 8.67045V9.17045H15.0299V8.67045H14.5299ZM6.80549 14.5085V0.446022H5.80549V14.5085H6.80549ZM6.30549 0.946022H8.69185V-0.053978H6.30549V0.946022ZM8.19185 0.446022V14.5085H9.19185V0.446022H8.19185ZM8.69185 14.0085H6.30549V15.0085H8.69185V14.0085ZM0.967419 8.67045V6.28409H-0.0325813V8.67045H0.967419ZM0.467419 6.78409H14.5299V5.78409H0.467419V6.78409ZM14.0299 6.28409V8.67045H15.0299V6.28409H14.0299ZM14.5299 8.17045H0.467419V9.17045H14.5299V8.17045Z" fill="#BABDE2" mask="url(#path-1-outside-1_4_106)"/>
</svg>
