<svg width="14" height="15" viewBox="0 0 14 15" fill="none" xmlns="http://www.w3.org/2000/svg">
<mask id="path-1-outside-1_4_110" maskUnits="userSpaceOnUse" x="-2" y="-1" width="18" height="17" fill="black">
<rect fill="white" x="-2" y="-1" width="18" height="17"/>
<path d="M1.11168 14.368L0.13968 13.396L6.04368 7.456L0.13968 1.516L1.11168 0.543999L7.01568 6.484L12.8837 0.543999L13.8557 1.516L7.95168 7.456L13.8557 13.396L12.8837 14.368L7.01568 8.464L1.11168 14.368Z"/>
</mask>
<path d="M1.11168 14.368L0.13968 13.396L6.04368 7.456L0.13968 1.516L1.11168 0.543999L7.01568 6.484L12.8837 0.543999L13.8557 1.516L7.95168 7.456L13.8557 13.396L12.8837 14.368L7.01568 8.464L1.11168 14.368Z" fill="#BABDE2"/>
<path d="M1.11168 14.368L0.404573 15.0751L1.11168 15.7822L1.81879 15.0751L1.11168 14.368ZM0.13968 13.396L-0.569573 12.691L-1.27239 13.3981L-0.567427 14.1031L0.13968 13.396ZM6.04368 7.456L6.75293 8.16095L7.45362 7.456L6.75293 6.75105L6.04368 7.456ZM0.13968 1.516L-0.567428 0.808893L-1.27239 1.51385L-0.569573 2.22095L0.13968 1.516ZM1.11168 0.544L1.82093 -0.160955L1.11383 -0.872367L0.404572 -0.163107L1.11168 0.544ZM7.01568 6.484L6.30643 7.18895L7.01785 7.90472L7.72709 7.18678L7.01568 6.484ZM12.8837 0.544L13.5908 -0.163107L12.8794 -0.874539L12.1723 -0.158782L12.8837 0.544ZM13.8557 1.516L14.5649 2.22095L15.2677 1.51385L14.5628 0.808893L13.8557 1.516ZM7.95168 7.456L7.24243 6.75105L6.54175 7.456L7.24243 8.16095L7.95168 7.456ZM13.8557 13.396L14.5628 14.1031L15.2677 13.3981L14.5649 12.691L13.8557 13.396ZM12.8837 14.368L12.1744 15.0729L12.8815 15.7844L13.5908 15.0751L12.8837 14.368ZM7.01568 8.464L7.72495 7.75906L7.01785 7.04762L6.30857 7.75689L7.01568 8.464ZM1.81879 13.6609L0.846786 12.6889L-0.567427 14.1031L0.404573 15.0751L1.81879 13.6609ZM0.848932 14.101L6.75293 8.16095L5.33443 6.75105L-0.569573 12.691L0.848932 14.101ZM6.75293 6.75105L0.848932 0.811046L-0.569573 2.22095L5.33443 8.16095L6.75293 6.75105ZM0.846786 2.22311L1.81879 1.25111L0.404572 -0.163107L-0.567428 0.808893L0.846786 2.22311ZM0.402427 1.24895L6.30643 7.18895L7.72493 5.77905L1.82093 -0.160955L0.402427 1.24895ZM7.72709 7.18678L13.5951 1.24678L12.1723 -0.158782L6.30427 5.78122L7.72709 7.18678ZM12.1766 1.25111L13.1486 2.22311L14.5628 0.808893L13.5908 -0.163107L12.1766 1.25111ZM13.1464 0.811046L7.24243 6.75105L8.66093 8.16095L14.5649 2.22095L13.1464 0.811046ZM7.24243 8.16095L13.1464 14.101L14.5649 12.691L8.66093 6.75105L7.24243 8.16095ZM13.1486 12.6889L12.1766 13.6609L13.5908 15.0751L14.5628 14.1031L13.1486 12.6889ZM13.5929 13.6631L7.72495 7.75906L6.30641 9.16894L12.1744 15.0729L13.5929 13.6631ZM6.30857 7.75689L0.404573 13.6609L1.81879 15.0751L7.72279 9.17111L6.30857 7.75689Z" fill="#BABDE2" mask="url(#path-1-outside-1_4_110)"/>
</svg>
